<?xml version="1.0" standalone="no"?>
<!DOCTYPE svg PUBLIC "-//W3C//DTD SVG 20010904//EN"
 "http://www.w3.org/TR/2001/REC-SVG-20010904/DTD/svg10.dtd">
<svg version="1.0" xmlns="http://www.w3.org/2000/svg"
 width="1600.000000pt" height="1600.000000pt" viewBox="0 0 1600.000000 1600.000000"
 preserveAspectRatio="xMidYMid meet">
<metadata>
Created by potrace 1.11, written by Peter Selinger 2001-2013
</metadata>
<g transform="translate(0.000000,1600.000000) scale(0.100000,-0.100000)"
fill="#000000" stroke="none">
<path d="M700 15249 l0 -51 26 31 c14 17 37 40 51 51 l26 20 -52 0 -51 0 0
-51z"/>
<path d="M15245 15250 c27 -27 51 -50 52 -50 2 0 3 23 3 50 l0 50 -52 0 -52 0
49 -50z"/>
<path d="M1315 14795 l-25 -24 0 -3361 0 -3361 25 -24 24 -25 3140 0 c2280 0
3147 3 3164 11 14 6 30 22 36 36 8 17 11 940 11 3374 l0 3350 -25 24 -24 25
-3151 0 -3151 0 -24 -25z m3003 -450 c2 -51 -2 -62 -43 -125 -25 -38 -55 -75
-67 -81 -13 -7 -31 -23 -41 -36 -10 -12 -25 -23 -34 -23 -13 0 -13 -3 -3 -15
11 -13 6 -15 -33 -15 -39 0 -47 -3 -53 -22 -9 -31 -46 -66 -52 -50 -3 9 -8 10
-15 3 -26 -20 -129 -44 -247 -56 -36 -4 -85 -13 -108 -21 -31 -10 -76 -13
-155 -10 -101 3 -120 7 -192 39 -44 19 -98 45 -120 57 -22 13 -69 39 -105 57
-166 87 -199 133 -191 268 1 11 10 35 21 53 l20 32 708 0 708 0 2 -55z m2909
47 c8 -5 11 -44 10 -127 -2 -119 -2 -120 -27 -126 -75 -18 -90 -41 -51 -83 12
-13 22 -43 26 -76 l6 -55 -50 -54 c-49 -53 -51 -54 -95 -48 -48 7 -117 -11
-124 -31 -2 -7 11 -19 30 -26 73 -31 129 -68 120 -80 -5 -6 -12 -31 -16 -56
-4 -25 -15 -63 -25 -85 -18 -39 -18 -41 3 -77 24 -44 41 -47 67 -14 12 16 32
25 61 29 24 2 51 8 61 12 16 7 17 -17 17 -413 l0 -419 -31 -7 c-45 -9 -79 -7
-79 3 0 12 -100 84 -107 77 -3 -2 -15 -1 -27 4 -15 5 -34 1 -66 -16 -49 -26
-96 -31 -103 -11 -2 8 -25 11 -74 9 -59 -2 -74 1 -97 19 -24 19 -34 21 -79 14
-110 -17 -126 -12 -191 57 -68 72 -132 164 -142 202 -3 14 -10 26 -15 26 -5 0
-9 13 -9 29 0 15 -9 40 -21 55 -16 21 -20 40 -20 97 0 39 4 76 9 82 5 7 10 60
10 119 2 101 3 109 34 161 19 31 65 82 106 117 39 35 72 67 72 72 0 5 30 23
68 39 84 38 181 83 252 119 30 15 66 30 80 33 14 4 38 25 53 47 36 51 73 54
106 10 18 -25 25 -29 41 -20 25 13 25 32 3 52 -23 20 -70 31 -78 18 -8 -12
-45 -13 -45 -1 0 5 6 14 14 21 20 16 9 40 -18 40 -36 0 -116 45 -195 110 -69
57 -141 135 -141 153 0 10 661 9 677 -1z m-5391 -171 c90 -66 113 -90 143
-146 23 -44 26 -71 11 -111 -14 -35 -15 -127 -2 -149 14 -27 70 -41 127 -34
45 6 98 5 176 -5 34 -5 68 -22 102 -54 25 -24 38 -27 125 -32 66 -3 106 -10
122 -21 59 -38 144 -143 169 -206 8 -21 19 -41 25 -45 7 -5 5 -8 -5 -8 -10 0
-26 -22 -42 -60 -35 -79 -100 -145 -153 -153 -30 -5 -48 -16 -76 -50 -31 -37
-48 -47 -119 -70 -46 -15 -126 -31 -177 -36 -108 -10 -138 -27 -120 -67 9 -20
8 -28 -4 -40 -13 -14 -24 -13 -99 11 -46 15 -89 28 -96 30 -6 2 -14 17 -18 33
-3 16 -22 42 -41 58 -20 16 -47 39 -61 51 -14 11 -39 24 -54 27 l-29 6 0 565
c0 311 4 565 8 565 5 0 44 -26 88 -59z m2819 -281 c27 0 36 -36 23 -85 -10
-39 -10 -48 2 -55 21 -13 30 -3 30 34 0 19 7 39 15 46 22 18 31 4 15 -24 -13
-25 -8 -56 9 -56 6 0 15 10 22 21 9 17 13 19 20 8 7 -11 12 -12 29 -1 22 13
25 6 11 -31 -9 -23 -6 -27 25 -42 37 -18 45 -47 20 -81 -10 -13 -11 -23 -4
-32 8 -9 3 -23 -21 -52 -17 -21 -31 -42 -31 -45 0 -4 -11 -20 -25 -37 -14 -16
-25 -36 -25 -44 0 -23 28 -16 47 12 10 14 32 44 50 67 18 23 42 61 53 85 11
23 27 42 35 42 19 0 19 -14 -1 -55 -20 -42 -15 -89 9 -93 24 -5 88 26 105 50
7 10 20 18 28 18 8 0 14 4 14 9 0 4 26 11 58 15 57 7 107 20 149 39 29 13 37
5 29 -27 -4 -15 -13 -25 -24 -24 -18 0 -75 -18 -107 -35 -11 -6 -37 -19 -57
-29 -49 -24 -48 -38 2 -38 66 0 49 -24 -31 -45 -55 -14 -73 -23 -81 -41 -6
-13 -14 -24 -18 -24 -3 0 -15 -7 -26 -15 -18 -14 -18 -15 11 -38 l29 -25 -59
-12 c-111 -22 -163 -44 -132 -56 21 -8 22 -43 2 -80 -34 -66 -15 -70 45 -9 39
39 80 59 80 38 0 -4 -26 -33 -57 -65 -52 -52 -61 -58 -99 -58 -37 0 -43 3 -46
23 -2 12 -13 26 -25 32 -12 5 -27 20 -34 32 -19 34 -29 14 -19 -37 5 -29 5
-50 -2 -57 -8 -10 -6 -13 5 -13 23 0 47 -57 47 -112 0 -45 2 -49 21 -43 11 4
33 2 49 -5 28 -12 58 -4 125 33 11 6 37 20 58 31 23 12 34 23 28 29 -6 6 -26
0 -54 -16 -47 -28 -57 -27 -57 8 0 28 19 44 110 88 48 24 94 56 127 90 58 60
155 108 161 80 3 -10 11 -13 24 -9 12 2 34 2 49 -1 27 -5 27 -6 13 -28 -8 -13
-24 -25 -34 -28 -11 -3 -20 -14 -20 -24 0 -29 -73 -84 -108 -81 -22 1 -43 -9
-78 -39 -27 -22 -60 -46 -72 -52 -35 -18 -19 -25 30 -13 24 6 75 16 115 22 40
6 103 23 140 37 37 14 109 30 158 35 50 6 104 16 122 24 17 8 56 14 87 14 48
0 56 -3 56 -19 0 -38 -72 -66 -93 -37 -11 15 -16 14 -55 -11 -47 -31 -53 -47
-19 -58 15 -5 -10 -12 -86 -23 -99 -13 -109 -13 -126 2 -16 15 -21 15 -47 1
-16 -8 -44 -15 -61 -15 -69 0 -330 -53 -398 -80 l-30 -12 24 -9 c56 -22 100
-46 168 -91 40 -26 75 -48 79 -48 3 0 18 -8 32 -18 15 -10 59 -28 97 -41 42
-14 97 -43 136 -72 37 -27 71 -49 77 -49 6 0 28 -11 48 -25 20 -14 43 -25 51
-25 8 0 12 -4 9 -9 -10 -15 4 -39 26 -44 11 -3 17 -10 14 -15 -6 -11 -54 -4
-62 9 -3 5 -14 9 -25 9 -11 0 -39 13 -62 28 -52 35 -72 43 -93 35 -11 -4 -13
-13 -9 -35 l7 -30 -34 18 c-18 10 -39 17 -46 15 -23 -4 -82 39 -82 61 0 11
-10 28 -22 39 -28 22 -38 24 -38 4 0 -30 -18 -14 -66 56 -26 39 -57 77 -69 85
-38 25 -119 43 -174 39 -47 -4 -84 -18 -70 -28 2 -2 27 -22 54 -44 28 -23 78
-56 110 -74 33 -18 62 -35 65 -39 3 -3 26 -21 52 -38 26 -18 74 -63 108 -100
33 -37 76 -78 96 -92 19 -14 47 -35 62 -48 15 -13 39 -30 53 -39 35 -21 48
-44 38 -68 -6 -15 -8 -16 -8 -4 -1 20 -39 33 -98 34 -41 1 -54 -7 -33 -20 5
-3 15 -15 20 -26 12 -22 -1 -26 -22 -6 -7 7 -35 30 -61 51 -27 22 -54 51 -62
65 -24 46 -295 314 -389 384 -59 44 -76 47 -76 10 0 -36 67 -106 158 -167 80
-53 122 -89 122 -105 0 -6 -3 -11 -7 -11 -9 0 -161 98 -205 132 -41 32 -43 30
-27 -22 5 -19 14 -57 19 -85 5 -27 12 -65 16 -82 8 -44 -11 -43 -60 2 -36 33
-39 34 -62 18 -14 -9 -26 -14 -29 -12 -2 3 -6 40 -9 84 -8 136 -25 152 -45 43
-16 -96 -35 -134 -66 -142 -29 -7 -65 -60 -65 -94 0 -15 15 -37 40 -59 22 -20
40 -39 40 -43 0 -11 -141 -77 -185 -86 -39 -9 -40 -10 -48 -64 -6 -43 -4 -61
8 -83 11 -18 14 -38 10 -57 -7 -33 -14 -35 -65 -19 -19 6 -57 14 -85 17 -43 6
-50 10 -53 32 -2 13 -10 33 -17 44 -8 11 -12 31 -8 47 6 30 7 29 -74 59 -43
16 -42 36 2 111 33 57 42 79 30 79 -15 0 -72 -35 -83 -51 -17 -25 -32 -24 -32
1 0 25 -5 25 -38 1 -87 -60 -97 -42 -19 33 58 55 77 83 77 114 0 10 14 32 31
48 18 16 43 41 58 55 41 41 99 65 122 51 22 -14 27 -11 187 106 55 39 102 72
106 72 4 0 19 12 34 26 l27 26 -25 -8 c-14 -4 -54 -13 -90 -21 -36 -8 -85 -18
-110 -24 -25 -5 -83 -12 -129 -14 -82 -4 -84 -5 -119 -42 -19 -21 -42 -50 -51
-65 -10 -15 -47 -42 -84 -62 l-67 -35 6 26 c7 24 5 25 -22 19 -16 -4 -64 -27
-106 -52 -79 -45 -90 -50 -86 -36 4 11 -5 14 -25 6 -10 -3 -20 -4 -23 -2 -7 8
7 38 18 38 6 0 27 15 48 33 20 17 45 37 56 43 10 7 16 15 13 18 -4 4 -37 -7
-74 -25 -68 -32 -90 -33 -63 -2 34 41 33 46 -8 39 -21 -4 -55 -16 -75 -26 -33
-17 -39 -17 -59 -3 -12 9 -34 13 -51 11 -38 -6 -33 14 7 23 80 17 184 74 184
100 0 5 14 30 30 56 17 26 30 54 30 64 0 15 55 69 72 69 4 0 8 4 8 10 0 5 -18
14 -40 20 -51 14 -43 30 12 25 44 -4 65 10 47 32 -7 8 -7 18 0 32 16 29 14 37
-15 50 -14 6 -24 17 -21 24 5 15 -97 87 -123 87 -10 0 -25 11 -34 25 -13 19
-25 25 -54 25 -48 0 -55 6 -68 58 -12 46 -9 50 16 27 15 -13 89 -42 200 -77
19 -6 62 -24 94 -40 33 -16 64 -27 69 -25 5 1 15 18 21 37 10 31 16 35 49 38
32 3 37 0 37 -17 0 -53 85 -63 159 -20 19 11 37 16 40 11 3 -5 20 -13 37 -16
18 -4 37 -17 44 -31 7 -14 19 -25 26 -25 7 0 30 -26 51 -57 43 -67 67 -93 105
-116 39 -24 49 -22 38 7 -13 34 -35 61 -110 134 -117 114 -192 156 -317 176
-129 21 -155 29 -167 51 -15 27 -35 46 -79 79 -28 21 -37 34 -34 48 3 10 0 21
-7 24 -13 5 -10 54 3 54 4 0 16 -8 27 -17 10 -10 56 -36 102 -58 45 -21 82
-42 82 -45 0 -7 73 -50 84 -50 3 0 6 11 6 24 0 28 -67 114 -90 115 -10 1 -11
4 -3 12 11 11 63 2 63 -12 0 -5 36 -32 80 -60 61 -39 90 -65 123 -112 23 -34
52 -66 63 -71 11 -5 33 -26 48 -48 18 -26 33 -37 44 -34 18 5 63 -50 119 -146
30 -51 53 -68 53 -40 0 27 -117 217 -164 266 -23 24 -67 60 -98 80 -50 31 -78
61 -78 80 0 3 10 6 21 6 20 0 21 1 5 25 -17 25 -15 29 17 26 11 -2 17 5 17 18
0 44 28 18 68 -62 23 -45 42 -86 42 -90 0 -12 102 -137 112 -137 13 0 10 10
-18 58 -17 29 -24 53 -21 70 4 18 -1 34 -14 47 -24 27 -38 88 -18 80 8 -3 18
4 24 16 10 21 30 24 30 4 0 -10 36 -93 54 -125 4 -9 26 -16 49 -18 31 -2 43 1
51 15 15 30 -2 45 -44 41 -41 -3 -60 16 -25 25 14 4 20 13 20 34 0 28 19 56
52 82 16 12 19 10 28 -15 11 -28 11 -28 31 -8 20 20 20 20 -1 66 -16 36 -24
45 -39 41 -21 -5 -51 43 -51 83 0 13 -5 26 -10 29 -13 8 -33 -43 -27 -67 4
-15 -1 -18 -29 -18 -22 0 -36 5 -39 15 -17 53 -15 51 -35 25 l-20 -25 0 28 c0
17 5 27 15 27 19 0 19 9 -2 32 -25 28 -41 21 -48 -22 -8 -45 -35 -57 -35 -15
0 14 -6 25 -12 25 -7 0 -22 3 -34 6 -12 3 -28 -1 -37 -10 -9 -9 -18 -12 -22
-7 -3 5 -1 12 5 16 5 3 7 18 4 33 -4 21 -3 24 5 12 19 -26 61 35 62 90 l1 45
14 -32 c14 -33 31 -39 87 -35 11 1 17 -5 17 -18 0 -10 5 -22 10 -25 16 -10 12
38 -6 63 -9 14 -14 36 -12 53 3 20 0 29 -9 29 -15 0 -15 2 -7 24 4 11 19 16
44 16 35 0 39 -3 54 -40 9 -22 18 -40 21 -40 8 0 74 74 75 84 0 18 34 47 48
41 7 -3 20 -5 27 -5z m-1255 -390 c14 -11 20 -20 15 -20 -15 0 -44 -59 -47
-95 -2 -23 -12 -35 -40 -50 -47 -25 -66 -66 -51 -106 6 -16 8 -29 4 -29 -15 0
-38 -57 -34 -85 4 -27 0 -32 -44 -54 -96 -49 -127 -103 -88 -155 19 -26 19
-46 0 -46 -33 0 -95 -40 -101 -66 -11 -44 11 -74 76 -102 33 -15 60 -30 60
-34 0 -4 -17 -15 -37 -23 -54 -23 -103 -63 -103 -86 0 -26 -7 -24 -74 16 -32
19 -62 35 -66 35 -17 0 -64 60 -85 109 l-23 54 29 25 c37 30 36 40 -1 53 -40
14 -38 23 8 38 73 23 109 81 54 89 -12 2 -22 10 -22 18 0 7 -18 26 -41 41 -40
26 -41 29 -35 69 6 46 45 125 82 165 14 14 24 38 24 55 0 45 13 58 59 56 43
-2 69 11 134 63 45 37 191 83 267 84 40 0 62 -5 80 -19z m-1231 -669 c10 -10
22 -37 26 -59 5 -32 12 -43 36 -52 16 -7 29 -15 30 -19 0 -3 1 -32 2 -63 0
-32 4 -58 8 -58 4 0 9 -10 11 -22 2 -12 13 -28 25 -34 13 -6 35 -33 49 -60 24
-44 25 -52 14 -88 -7 -22 -20 -46 -29 -52 -12 -10 -13 -15 -4 -25 9 -9 16 -9
26 -1 17 14 24 8 43 -37 11 -26 18 -32 31 -26 10 5 29 8 43 9 20 1 26 -4 28
-26 3 -21 0 -27 -11 -22 -8 3 -18 1 -21 -5 -8 -13 -56 7 -56 23 0 7 -3 7 -10
0 -12 -12 46 -160 65 -168 6 -2 32 11 58 30 l47 34 -5 162 c-3 90 -8 202 -12
250 -8 83 -10 89 -46 127 l-37 40 32 38 c18 21 32 39 33 39 0 1 10 4 22 8 17
5 24 1 37 -25 18 -36 21 -91 6 -118 -12 -24 -15 -494 -2 -499 5 -1 16 3 23 10
27 26 118 79 138 81 15 1 21 8 21 27 0 31 36 88 42 68 3 -9 13 -4 31 17 21 24
26 26 27 12 0 -10 7 -20 15 -23 22 -9 19 -74 -5 -104 -23 -30 -26 -88 -5 -116
8 -10 15 -27 15 -36 0 -23 32 -77 49 -83 16 -6 51 22 51 41 0 23 131 101 185
110 11 2 32 6 48 9 22 4 27 2 27 -14 0 -11 -5 -23 -11 -27 -7 -4 -10 -29 -7
-68 4 -53 2 -65 -18 -89 -22 -26 -23 -54 -2 -68 5 -3 -16 -9 -47 -12 -57 -6
-138 -40 -183 -77 -19 -15 -21 -23 -13 -38 9 -16 7 -21 -9 -25 -27 -7 -25 -18
9 -58 28 -32 33 -34 95 -34 37 0 66 -4 67 -10 3 -29 -4 -70 -12 -74 -26 -9
-50 -50 -60 -100 -9 -48 -15 -58 -42 -72 -48 -24 -70 -78 -64 -159 3 -52 0
-71 -15 -98 -14 -23 -19 -44 -15 -70 8 -65 -78 -167 -126 -149 -16 6 -27 59
-27 138 0 49 3 59 30 82 17 15 30 32 30 37 0 17 -39 11 -49 -8 -5 -10 -27 -27
-48 -37 -64 -33 -67 -37 -41 -51 20 -11 21 -13 6 -19 -9 -4 -30 1 -47 10 -30
15 -39 30 -22 37 4 2 5 12 1 23 -7 19 -9 18 -19 -7 -7 -19 -18 -28 -33 -29
-15 0 -18 -3 -8 -6 8 -3 48 -31 89 -61 71 -53 73 -55 51 -67 -15 -8 -19 -15
-11 -19 6 -4 11 -19 11 -33 0 -16 7 -27 19 -30 11 -3 21 -15 23 -27 2 -11 17
-28 33 -37 17 -8 66 -52 110 -96 99 -99 113 -107 143 -83 12 10 22 22 22 28 0
9 -21 37 -62 82 -91 99 -91 98 -84 124 4 15 14 26 24 26 27 1 50 23 79 79 16
29 51 70 83 96 53 44 57 46 105 40 83 -10 199 -12 217 -3 18 8 68 -9 68 -23 0
-5 42 -8 93 -7 68 1 100 -3 124 -15 46 -24 73 -23 41 2 -45 36 -162 90 -173
80 -16 -16 -60 -10 -77 10 -16 19 -16 20 2 26 10 3 17 12 14 19 -6 15 -121 53
-187 62 -26 4 -55 13 -64 21 -16 13 -11 13 42 7 90 -11 137 -8 147 10 5 9 15
16 22 16 7 0 22 13 33 28 l21 28 -44 24 c-50 26 -69 20 -34 -10 27 -23 21 -24
-38 -7 -23 7 -40 16 -36 19 3 4 12 4 19 2 26 -10 26 17 1 41 -31 28 -27 43 19
73 43 27 45 27 45 1 0 -11 15 -35 32 -52 18 -18 37 -41 43 -52 6 -11 22 -21
35 -23 53 -6 118 -27 184 -59 l68 -34 22 20 c32 30 60 26 90 -13 40 -53 166
-94 166 -54 0 15 -61 96 -76 102 -16 6 -19 26 -5 26 5 0 27 -16 48 -36 31 -30
47 -38 87 -41 68 -6 82 1 62 29 -11 16 -13 25 -4 35 19 23 33 14 71 -44 53
-85 95 -127 110 -114 12 9 105 7 115 -4 3 -2 7 -39 10 -81 4 -58 1 -78 -9 -85
-11 -7 -12 -13 -1 -41 43 -107 35 -149 -14 -78 -16 23 -37 51 -47 63 -17 20
-18 20 -12 2 10 -28 24 -92 31 -140 3 -22 10 -53 16 -68 9 -24 16 -28 37 -24
27 5 50 -15 51 -45 0 -19 -25 -25 -35 -8 -3 6 -13 10 -21 10 -8 0 -28 14 -46
30 -17 17 -34 30 -38 30 -3 0 -31 33 -61 73 -38 50 -55 67 -57 55 -2 -10 5
-30 15 -45 11 -16 31 -53 46 -83 15 -31 55 -89 90 -130 35 -41 67 -86 70 -100
22 -93 30 -118 47 -142 24 -32 25 -39 6 -32 -18 7 -56 -30 -56 -53 0 -9 14
-32 32 -50 31 -32 31 -33 9 -33 -20 0 -81 48 -81 64 0 7 -94 140 -163 230 -12
16 -31 44 -42 62 -11 18 -50 72 -87 121 -37 48 -77 103 -90 120 -13 18 -31 35
-40 38 -10 4 -18 12 -18 20 0 7 -13 23 -30 35 -28 20 -30 20 -30 3 0 -11 14
-32 31 -49 17 -16 45 -49 62 -74 16 -25 56 -76 87 -115 31 -38 72 -92 90 -120
19 -27 37 -52 40 -55 4 -3 25 -32 47 -65 23 -33 62 -85 88 -115 65 -78 75 -90
75 -95 0 -3 -43 -5 -95 -5 -79 0 -95 3 -95 15 0 9 -6 18 -14 21 -8 3 -20 20
-27 37 -7 18 -25 48 -41 69 -16 20 -51 85 -80 145 -28 59 -76 146 -107 193
-31 47 -59 93 -63 103 -11 25 -58 23 -58 -3 0 -29 -25 -15 -51 28 -17 27 -24
32 -26 20 -6 -25 24 -88 42 -88 24 0 89 -47 122 -88 16 -20 58 -93 92 -161 34
-69 71 -137 82 -152 10 -15 19 -32 19 -38 0 -20 -28 -12 -35 10 -5 16 -12 19
-30 15 -22 -6 -23 -4 -18 34 6 44 7 44 -101 55 -39 4 -76 15 -105 33 -66 40
-98 52 -133 52 l-32 0 34 35 c27 28 34 44 38 88 4 55 -4 71 -43 78 -11 3 -22
15 -25 29 -15 64 -125 56 -181 -14 -16 -19 -17 -19 -42 21 -14 23 -36 48 -48
57 -27 19 -75 11 -107 -17 -22 -20 -23 -20 -52 -3 -30 17 -31 17 -65 -4 -21
-13 -37 -32 -41 -48 -3 -15 -7 -33 -10 -40 -4 -15 17 -65 41 -99 l16 -21 -60
5 c-58 5 -62 4 -90 -26 -16 -17 -36 -31 -45 -31 -9 0 -53 -18 -98 -41 -77 -39
-80 -39 -73 -17 4 13 10 44 12 70 4 40 1 51 -21 73 -32 31 -47 31 -85 0 -21
-19 -36 -24 -54 -20 -31 8 -78 -15 -107 -52 -19 -25 -21 -36 -16 -94 l7 -65
-58 -18 c-38 -12 -68 -30 -88 -52 -20 -22 -41 -34 -57 -34 -17 0 -35 -11 -51
-30 l-26 -30 -320 0 -321 0 0 561 0 561 34 41 c27 33 32 47 25 64 -7 18 0 30
40 70 130 132 242 233 265 239 14 3 24 10 21 14 -3 5 4 34 16 65 11 31 19 59
16 61 -4 4 -46 -30 -117 -96 -15 -14 -60 -52 -101 -85 -41 -33 -102 -87 -136
-119 l-63 -59 0 144 0 144 29 17 c40 22 64 61 65 106 1 36 -1 38 -46 52 l-48
15 0 388 c0 355 1 388 17 394 9 4 19 1 21 -5 2 -7 8 -10 12 -7 5 3 33 -14 62
-38 104 -84 150 -100 162 -54 3 12 19 31 35 42 22 14 31 29 36 62 9 60 47 81
84 44z m3805 -983 c5 -10 7 -10 12 0 7 14 34 16 34 2 0 -5 -5 -10 -12 -10 -31
0 8 -13 49 -17 37 -3 54 -10 76 -33 15 -17 34 -30 42 -30 8 0 31 -16 52 -35
21 -19 58 -45 83 -57 52 -25 112 -65 121 -79 3 -6 26 -12 50 -14 79 -6 156
-67 128 -101 -15 -19 -41 -18 -77 3 -29 17 -30 17 -56 -13 -14 -16 -29 -40
-33 -54 -3 -13 -14 -33 -24 -44 -10 -10 -16 -23 -13 -27 3 -5 0 -18 -6 -29 -8
-16 -8 -20 3 -20 21 0 47 -33 38 -49 -7 -10 -9 -10 -14 3 -3 8 -22 18 -42 22
-45 8 -51 18 -25 44 36 36 22 60 -57 98 -42 20 -75 19 -101 -1 -26 -20 -42 40
-23 87 7 18 8 18 14 3 10 -26 63 -22 93 8 31 31 24 45 -21 45 -19 0 -37 5 -40
11 -4 6 -14 8 -22 5 -9 -4 -22 -1 -30 5 -7 7 -27 12 -44 11 -16 0 -27 4 -24 9
4 5 2 9 -4 9 -5 0 -12 -8 -15 -18 -3 -10 -20 -23 -38 -30 -27 -10 -34 -9 -41
3 -19 34 -72 7 -87 -45 -8 -26 -5 -40 13 -71 12 -22 32 -42 45 -45 18 -5 22
-13 22 -44 0 -21 7 -43 15 -50 8 -7 15 -28 15 -46 0 -29 5 -36 38 -53 21 -11
44 -31 51 -44 8 -14 24 -28 37 -31 15 -4 21 -11 18 -21 -9 -23 10 -18 40 10
33 31 66 33 66 5 0 -11 -4 -20 -9 -20 -5 0 -8 -8 -7 -17 1 -20 -41 -34 -67
-21 -24 12 -35 3 -43 -37 -8 -45 26 -107 72 -129 20 -9 34 -11 34 -5 0 6 9 8
22 4 17 -6 20 -4 14 10 -3 10 -4 27 0 37 5 17 12 19 42 13 21 -4 43 -12 51
-18 11 -9 15 -9 19 2 4 11 6 11 13 0 8 -11 11 -11 20 4 8 14 20 16 66 13 31
-3 60 -11 64 -18 7 -10 9 -10 9 3 0 8 -9 25 -21 38 l-21 22 23 26 24 25 -27
22 c-16 12 -28 27 -28 33 0 19 42 43 76 43 17 0 37 7 44 15 18 22 31 15 44
-25 11 -34 12 -35 60 -32 62 4 96 -4 96 -23 0 -8 4 -15 9 -15 12 0 61 -116 61
-145 0 -13 6 -25 13 -28 23 -8 37 5 37 36 0 31 24 67 45 67 6 0 18 -12 26 -26
7 -14 23 -30 34 -34 16 -6 26 -26 39 -81 17 -69 17 -74 0 -86 -17 -12 -17 -33
2 -131 l6 -33 -58 31 c-32 16 -59 30 -60 30 -1 0 -15 -32 -30 -70 -17 -40 -36
-73 -47 -76 -9 -3 -15 -10 -12 -15 10 -15 -19 -10 -63 11 -22 11 -45 20 -49
20 -19 0 -33 42 -27 80 4 22 8 40 10 40 2 0 17 -13 32 -30 16 -16 32 -30 36
-30 14 0 4 34 -19 65 -21 26 -33 33 -62 33 -35 0 -35 0 -30 -38 6 -50 -5 -69
-33 -52 -11 6 -26 12 -34 12 -7 0 -19 7 -26 15 -19 23 -33 6 -16 -20 16 -24
15 -24 -32 -31 -55 -8 -132 -52 -112 -64 17 -10 9 -44 -12 -48 -11 -2 -18 5
-20 19 -3 22 -8 26 -67 53 -32 15 -34 15 -63 -15 -17 -16 -32 -28 -34 -26 -2
2 -7 21 -12 43 l-9 39 -12 -42 c-6 -24 -15 -43 -20 -43 -5 0 -19 -11 -33 -24
-17 -18 -28 -22 -38 -15 -8 5 -30 9 -48 9 -29 0 -33 3 -30 22 2 14 13 24 30
29 15 4 39 18 54 32 l27 25 -39 10 c-112 29 -185 22 -138 -13 21 -15 17 -24
-14 -30 -26 -5 -40 14 -21 26 11 7 9 9 -6 9 -16 0 -21 -7 -23 -38 -2 -35 1
-39 47 -70 28 -17 55 -32 60 -32 12 0 15 -43 4 -54 -12 -11 -32 -79 -39 -128
-4 -27 -10 -48 -15 -48 -5 0 -9 5 -9 10 0 6 -9 10 -20 10 -11 0 -20 -4 -20
-10 0 -7 -177 -10 -510 -10 -456 0 -510 2 -510 16 0 23 -51 196 -64 216 -8 13
-8 23 1 37 10 16 9 20 -10 25 -32 8 -107 59 -107 72 0 7 6 15 13 17 15 7 -12
29 -28 23 -47 -16 -52 -16 -63 8 -7 16 -8 46 -1 97 10 79 4 175 -12 185 -6 3
-6 10 -1 17 5 7 12 50 16 96 5 61 12 91 26 109 11 13 20 31 20 39 0 12 4 12
22 -1 12 -9 38 -16 56 -16 60 0 110 70 136 194 1 5 12 -7 23 -26 16 -27 34
-41 77 -57 72 -27 104 -27 132 0 41 39 46 15 7 -31 -65 -75 -163 -216 -163
-234 0 -15 6 -16 33 -11 55 12 67 23 67 60 0 25 4 35 16 35 8 0 21 15 29 34 8
19 19 37 25 41 5 3 10 14 10 23 0 31 77 108 135 137 54 26 57 26 76 9 10 -9
19 -25 19 -35 0 -10 5 -21 11 -25 8 -4 8 -9 0 -17 -12 -12 3 -37 22 -37 18 0
107 43 107 52 0 4 6 8 14 8 7 0 27 7 42 15 16 8 50 15 75 15 25 0 54 7 65 15
10 8 29 15 40 15 13 0 24 8 27 21 3 12 10 18 16 14 17 -10 13 21 -4 38 -13 13
-13 20 0 56 8 23 12 41 9 41 -3 0 4 9 14 21 24 25 19 49 -17 89 -19 23 -34 30
-62 30 -20 0 -48 6 -62 13 -21 11 -23 16 -12 30 6 9 28 24 49 32 25 11 36 22
36 36 0 15 11 25 40 36 33 13 40 21 40 44 0 27 20 53 20 27 0 -8 5 -6 11 5 8
13 14 15 29 7 10 -5 21 -15 24 -22z m-1290 -1563 c11 -8 17 -15 13 -15 -4 0 2
-9 13 -20 32 -32 24 -40 -36 -40 -34 0 -53 4 -49 10 3 6 13 10 22 10 12 0 14
8 11 35 -4 39 -2 41 26 20z"/>
<path d="M4510 13665 c0 -8 5 -15 10 -15 6 0 10 7 10 15 0 8 -4 15 -10 15 -5
0 -10 -7 -10 -15z"/>
<path d="M5881 11418 c1 -24 6 -49 12 -55 5 -7 7 -22 4 -34 -3 -12 -3 -18 0
-15 4 3 13 0 22 -7 14 -11 14 -10 2 6 -12 15 -11 24 4 64 l18 46 -24 18 c-35
27 -39 24 -38 -23z"/>
<path d="M5800 11310 c0 -12 8 -12 35 0 18 8 17 9 -7 9 -16 1 -28 -3 -28 -9z"/>
<path d="M6497 10973 c-4 -3 -15 -7 -25 -8 -37 -4 -48 -15 -46 -47 1 -17 -4
-54 -11 -82 -7 -28 -12 -53 -10 -54 2 -2 18 -1 35 3 34 8 137 100 122 109 -5
3 -12 24 -16 46 -5 30 -11 40 -24 40 -10 0 -22 -3 -25 -7z"/>
<path d="M6370 10841 c0 -6 5 -13 10 -16 6 -3 10 1 10 9 0 9 -4 16 -10 16 -5
0 -10 -4 -10 -9z"/>
<path d="M5505 10723 c-94 -9 -184 -37 -230 -73 -5 -4 -62 -25 -125 -46 -106
-36 -111 -39 -74 -42 24 -2 62 5 90 16 27 11 77 31 111 45 62 25 79 23 67 -7
-5 -13 2 -16 45 -16 28 0 51 -3 51 -8 0 -4 -20 -16 -44 -27 -24 -11 -42 -23
-40 -27 2 -3 28 -14 57 -24 28 -9 85 -37 125 -61 41 -23 82 -43 93 -43 11 0
27 -4 37 -9 9 -5 32 -16 50 -23 17 -7 32 -19 32 -25 0 -13 15 -18 35 -13 11 3
45 8 62 9 6 1 16 16 22 33 7 18 24 50 38 71 21 30 32 38 50 34 27 -5 30 5 8
27 -8 8 -15 19 -15 25 0 6 -10 16 -22 22 -44 23 -48 45 -13 61 27 12 32 23 13
31 -14 5 -203 -7 -227 -14 -9 -2 -17 6 -22 21 -4 14 -7 18 -8 9 -1 -18 -56
-61 -65 -51 -4 3 -19 6 -34 7 -36 0 -42 31 -10 53 12 9 28 17 33 17 6 0 10 7
10 15 0 14 -33 19 -100 13z"/>
<path d="M8315 14795 l-25 -24 0 -3350 c0 -2434 3 -3357 11 -3374 6 -14 22
-30 36 -36 17 -8 884 -11 3164 -11 l3140 0 24 25 25 24 0 3361 0 3361 -25 24
-24 25 -3151 0 -3151 0 -24 -25z m4725 -2465 l0 -2070 -1550 0 -1550 0 0 2070
0 2070 1550 0 1550 0 0 -2070z"/>
<path d="M9975 14358 c-3 -13 -4 -930 -3 -2038 l3 -2015 1515 0 1515 0 0 2035
0 2035 -1512 3 -1513 2 -5 -22z m1325 -507 c-14 -27 -8 -29 93 -35 71 -4 77
-3 77 15 0 25 16 25 23 -1 4 -17 9 -19 29 -11 44 16 188 6 263 -19 120 -40
161 -77 220 -197 l40 -81 51 -11 c64 -15 126 -66 160 -132 22 -44 23 -52 10
-64 -11 -11 -13 -29 -9 -70 4 -38 2 -55 -6 -55 -6 0 -11 -8 -11 -17 0 -15 -2
-15 -9 -4 -8 12 -12 12 -26 -2 -9 -10 -25 -22 -36 -27 -10 -6 -19 -19 -19 -30
0 -11 -11 -27 -25 -36 -20 -13 -25 -25 -25 -55 0 -43 -22 -64 -77 -75 -28 -5
-31 -3 -36 23 -3 15 -8 37 -12 49 -5 17 -1 23 27 33 68 26 82 38 100 93 13 41
15 60 7 85 -16 51 -33 58 -73 34 -37 -23 -46 -39 -46 -78 0 -31 -53 -83 -86
-83 -29 0 -30 4 -3 42 23 32 37 112 22 121 -5 3 -5 34 1 76 9 65 8 74 -12 110
-12 21 -24 52 -26 68 -6 39 -27 95 -43 111 -16 17 -16 8 1 -50 15 -49 13 -58
-16 -58 -25 0 -23 -13 5 -25 13 -6 28 -27 37 -52 13 -39 13 -45 -9 -88 -12
-25 -26 -45 -30 -45 -12 0 -28 22 -29 40 -13 159 -16 177 -34 203 -11 15 -23
27 -27 27 -4 0 -5 -29 -3 -65 5 -71 -2 -86 -50 -111 -27 -14 -29 -13 -38 10
-5 13 -14 27 -19 31 -6 3 -8 17 -5 31 6 24 -4 30 -43 25 -7 -1 -15 10 -19 24
-7 28 -57 60 -80 51 -16 -6 -19 -36 -3 -36 23 0 41 -33 46 -85 5 -47 8 -53 18
-38 12 16 16 14 49 -19 23 -23 43 -35 53 -31 11 4 14 1 11 -13 -2 -13 -12 -19
-33 -20 -90 -1 -93 -7 -35 -61 22 -21 40 -45 40 -54 0 -12 10 -16 48 -15 44 1
47 -1 50 -26 3 -21 -1 -28 -13 -28 -12 0 -15 -5 -10 -17 15 -37 14 -49 -3 -69
-33 -39 -54 -37 -115 6 -31 22 -71 43 -89 46 -18 4 -38 13 -45 21 -18 23 3 60
40 67 30 6 30 6 11 27 -10 12 -18 30 -16 41 3 18 0 18 -32 -7 -20 -15 -39 -39
-42 -54 -11 -52 -12 -53 -37 -36 -35 22 -107 114 -113 144 -3 14 -9 34 -15 43
-5 10 -9 49 -9 88 0 38 -4 70 -9 70 -4 0 -20 -9 -35 -21 -30 -24 -35 -67 -10
-104 8 -13 22 -54 29 -91 8 -36 19 -72 25 -79 7 -8 4 -17 -11 -31 -18 -16 -20
-28 -17 -90 2 -43 10 -79 19 -90 13 -16 11 -16 -20 2 -48 28 -92 83 -85 109 4
15 -1 25 -18 34 -44 23 -64 97 -48 176 6 31 10 59 7 61 -7 8 -55 -46 -72 -82
-18 -37 -40 -36 -32 2 4 24 -15 50 -30 41 -11 -7 -10 77 2 122 11 45 65 97
109 105 30 6 39 14 61 57 25 50 109 138 132 139 12 0 43 54 43 76 0 11 21 25
28 18 2 -1 -1 -12 -8 -23z m425 -518 c-11 -3 -24 -10 -30 -15 -7 -8 -6 -9 3
-4 6 4 12 3 12 -1 0 -10 53 -38 89 -48 19 -6 23 -4 18 9 -4 10 -1 16 8 16 9 0
12 -6 9 -15 -4 -8 -1 -15 5 -15 6 0 11 4 11 9 0 5 11 4 25 -2 28 -13 32 -41
13 -82 -9 -21 -18 -25 -42 -23 -23 2 -32 9 -34 25 -2 15 -13 24 -35 29 -27 5
-127 91 -127 108 0 6 37 13 70 13 20 1 21 0 5 -4z"/>
<path d="M11860 13246 c0 -2 7 -6 15 -10 8 -3 15 -1 15 4 0 6 -7 10 -15 10 -8
0 -15 -2 -15 -4z"/>
<path d="M1315 7495 l-25 -24 0 -3121 0 -3121 25 -24 24 -25 3151 0 3151 0 24
25 25 24 0 3110 c0 2258 -3 3117 -11 3134 -6 14 -22 30 -36 36 -17 8 -884 11
-3164 11 l-3140 0 -24 -25z m805 -407 c0 -9 3 -9 12 0 16 16 43 15 58 -3 10
-12 8 -16 -11 -24 -13 -5 -31 -5 -39 -1 -22 11 -97 5 -115 -10 -8 -7 -15 -24
-16 -39 -1 -52 -13 -65 -60 -67 -56 -2 -127 -18 -142 -33 -6 -6 -19 -11 -29
-11 -10 0 -18 -3 -18 -7 0 -5 35 -7 78 -5 42 1 101 2 131 2 66 0 84 12 69 46
-6 13 -8 27 -4 31 10 11 184 9 195 -2 18 -18 -5 -37 -53 -42 -25 -3 -51 -12
-58 -21 -11 -13 -5 -14 50 -7 67 7 79 -2 40 -29 -25 -18 -74 -21 -83 -6 -11
18 -51 10 -75 -15 -13 -14 -32 -25 -43 -25 -11 0 -18 -2 -15 -5 7 -8 47 -8
122 -1 60 6 68 5 62 -9 -4 -11 2 -19 19 -25 29 -11 33 -30 8 -31 -10 0 -30
-15 -44 -32 l-27 -32 62 0 c55 0 127 -15 166 -34 8 -5 16 -19 18 -33 3 -26 24
-38 70 -38 12 0 30 -4 40 -9 9 -5 32 -15 50 -21 18 -7 40 -26 49 -41 10 -16
21 -29 25 -29 4 0 8 -9 8 -20 0 -26 22 -35 50 -20 31 16 33 9 11 -36 l-19 -39
26 -7 c15 -4 32 -15 39 -24 19 -26 -24 -43 -132 -54 -49 -4 -106 -15 -126 -24
-51 -22 -108 -59 -109 -72 0 -12 -75 -54 -96 -54 -8 0 -14 7 -14 15 0 8 7 15
15 15 8 0 23 9 34 21 11 12 24 18 30 14 6 -3 11 1 11 10 0 8 7 18 15 21 23 9
18 34 -7 34 -13 0 -38 -9 -56 -20 -18 -11 -39 -20 -46 -20 -8 0 -14 -6 -13
-12 1 -35 -6 -46 -40 -62 -46 -22 -85 -35 -140 -47 -24 -5 -62 -13 -85 -18
-24 -5 -59 -14 -78 -20 -58 -18 -50 -22 -122 57 l-38 41 0 234 c0 226 1 235
20 240 11 3 20 11 20 18 0 10 -3 10 -12 1 -7 -7 -16 -12 -20 -12 -4 0 -8 81
-8 179 l0 180 38 0 c20 0 82 11 137 23 85 20 100 26 100 43 0 17 -8 20 -52 23
-34 2 -65 -3 -88 -14 -32 -15 -37 -15 -60 0 -14 9 -25 19 -25 21 0 3 77 5 170
5 126 0 170 -3 170 -12z m1929 -22 c12 -18 39 -45 61 -60 52 -35 78 -85 62
-121 -14 -31 -16 -87 -3 -100 31 -33 61 -219 32 -201 -4 3 -17 -1 -27 -8 -22
-17 -44 -4 -44 25 0 12 5 16 15 13 9 -4 15 0 15 10 0 26 -35 19 -71 -14 -40
-39 -75 -38 -71 2 3 25 1 26 -37 24 -42 -2 -94 -36 -119 -79 -12 -20 -13 -18
-8 21 4 43 4 44 -21 37 -14 -3 -38 0 -55 7 -32 14 -71 78 -62 102 3 8 -1 27
-9 43 -13 25 -12 33 8 82 12 30 25 49 29 43 4 -6 13 -9 21 -6 19 8 55 66 55
89 0 17 -1 17 -20 0 -11 -10 -20 -24 -20 -30 0 -7 -7 -15 -15 -19 -26 -9 -17
27 15 62 16 17 36 32 44 32 10 0 12 10 9 40 l-5 40 100 0 100 0 21 -34z m1507
19 c19 -15 19 -15 -4 -35 -13 -11 -21 -24 -18 -29 10 -15 -10 -53 -48 -94 -20
-21 -36 -41 -36 -45 0 -15 -67 -50 -107 -56 -38 -6 -43 -4 -43 14 0 13 7 20
18 20 27 0 33 10 16 27 -9 9 -24 13 -37 9 -23 -6 -77 13 -77 26 0 11 -38 10
-45 -2 -3 -5 -12 -7 -19 -4 -9 3 -17 -3 -21 -17 -4 -12 -27 -42 -51 -66 -24
-25 -46 -53 -49 -63 -6 -18 -38 -34 -63 -31 -21 3 -101 -58 -117 -89 -18 -35
-63 -65 -50 -34 21 53 20 57 -16 49 -19 -3 -46 -19 -61 -35 -14 -16 -28 -26
-31 -24 -2 3 -15 0 -29 -5 -15 -5 -30 -5 -41 0 -15 9 -15 12 -2 33 15 22 14
25 -15 54 -24 25 -29 35 -21 49 5 10 13 34 16 54 3 21 12 42 20 49 7 6 12 17
9 24 -3 7 7 25 21 40 l25 27 42 -41 c23 -22 47 -40 54 -40 6 0 14 -6 17 -14 4
-10 31 -14 114 -14 59 0 117 5 128 10 11 6 35 26 53 47 26 29 31 41 26 66 -9
45 -39 108 -57 124 -10 7 -17 17 -17 22 0 5 112 9 248 9 205 0 252 -3 268 -15z
m1219 -7 c4 -13 26 -43 50 -68 24 -25 60 -71 80 -103 20 -32 43 -61 51 -64 25
-9 15 -23 -18 -23 -36 -1 -94 -43 -83 -60 3 -6 2 -10 -4 -10 -5 0 -13 5 -16
10 -11 18 -37 11 -57 -15 -11 -14 -26 -25 -34 -25 -8 0 -17 -7 -20 -15 -5 -12
-15 -14 -40 -9 -27 5 -34 3 -34 -10 0 -22 -17 -20 -23 3 -5 19 -6 19 -39 3
-20 -10 -33 -22 -31 -29 7 -18 -14 -16 -25 2 -9 16 -21 7 -75 -55 -24 -28 -43
-15 -23 16 23 34 20 46 -11 42 -20 -2 -28 -9 -28 -23 -1 -19 -9 -45 -39 -117
-6 -16 -17 -28 -24 -28 -7 0 -17 -11 -22 -25 -5 -14 -20 -27 -35 -31 -14 -3
-25 -12 -25 -18 0 -19 -47 -59 -55 -47 -12 20 -38 13 -32 -9 3 -10 -1 -24 -9
-31 -11 -9 -14 -8 -14 4 0 22 -30 30 -50 12 -9 -8 -23 -15 -30 -15 -7 0 -21
-7 -30 -15 -9 -8 -31 -18 -49 -21 -31 -6 -33 -5 -26 15 4 12 4 34 0 49 l-7 27
-11 -26 c-10 -23 -16 -25 -34 -18 -26 9 -31 29 -9 29 24 0 27 17 9 50 -14 25
-15 34 -5 37 17 7 15 33 -3 33 -8 0 -15 -4 -15 -10 0 -5 -4 -10 -10 -10 -5 0
-10 9 -10 19 0 27 -17 35 -29 14 -6 -10 -11 -13 -11 -8 0 6 -9 16 -20 23 -18
11 -22 10 -29 -10 -7 -19 -9 -16 -15 24 -5 35 -12 47 -29 52 -26 6 -37 -2 -17
-14 16 -10 7 -15 -34 -22 -10 -2 -28 -15 -38 -29 -20 -26 -20 -27 -2 -55 10
-16 23 -33 29 -37 7 -6 6 -10 -2 -14 -7 -2 -13 -14 -13 -24 0 -11 -4 -18 -9
-15 -4 3 -6 17 -3 31 3 20 0 25 -17 25 -11 0 -21 -4 -21 -9 0 -17 -44 -20 -62
-4 -13 11 -18 12 -18 3 0 -6 -11 -21 -25 -32 -17 -13 -25 -30 -26 -51 -1 -18
-3 -24 -6 -14 -6 21 -19 22 -27 2 -3 -8 -11 -15 -18 -15 -20 0 -38 -50 -39
-105 -1 -59 5 -118 15 -133 4 -7 -4 -14 -21 -18 -17 -5 -28 -3 -31 4 -5 15
-47 15 -73 1 -12 -6 -28 -8 -37 -4 -16 6 -16 7 0 19 27 20 6 43 -25 29 -69
-32 -28 49 87 171 61 65 110 127 126 161 46 94 87 127 175 139 28 4 67 19 88
32 21 14 42 22 47 19 20 -12 51 7 81 51 41 60 46 100 20 159 -12 26 -21 49
-21 51 0 23 191 125 313 165 37 13 67 26 67 31 0 4 130 8 289 8 l290 0 6 -22z
m-2616 -857 c-5 -59 3 -231 11 -231 6 0 10 9 10 20 0 11 5 20 10 20 6 0 10 -7
10 -15 0 -8 11 -22 25 -31 24 -16 25 -20 27 -143 1 -88 3 -111 8 -76 6 48 6
49 17 23 23 -52 28 -35 24 78 -3 99 -1 115 13 120 23 9 32 -2 16 -21 -11 -14
-8 -108 6 -158 11 -36 25 -4 19 42 -6 41 -3 50 19 74 14 16 26 34 26 42 0 7
10 22 23 32 13 10 27 27 32 38 7 16 10 12 15 -25 4 -25 5 -51 2 -58 -2 -7 -1
-33 3 -58 5 -39 9 -44 26 -39 24 8 24 0 1 -33 -33 -49 -56 -162 -32 -162 6 0
10 8 10 18 1 48 42 126 94 175 l31 29 -35 -6 c-27 -5 -32 -4 -22 6 7 7 12 24
12 39 0 78 45 104 80 47 10 -18 17 -34 14 -37 -3 -3 -9 1 -14 9 -5 8 -12 11
-17 7 -4 -4 -1 -17 6 -28 10 -18 10 -24 -3 -38 -9 -10 -16 -23 -16 -30 0 -7
-11 -37 -25 -68 -34 -72 -26 -92 11 -29 16 26 47 74 69 105 38 53 40 55 43 29
2 -15 -1 -43 -7 -62 -6 -23 -6 -38 0 -42 6 -3 -6 -35 -27 -71 -19 -35 -33 -67
-30 -70 7 -8 4 -12 53 62 54 80 139 150 118 98 -3 -10 -9 -31 -11 -48 l-5 -30
18 25 c29 40 115 130 123 130 14 0 -29 -110 -66 -167 -19 -29 -34 -56 -34 -59
0 -3 -11 -22 -25 -42 -27 -39 -31 -52 -16 -52 5 0 24 24 42 52 45 70 88 118
105 118 8 0 14 5 14 11 0 8 5 7 15 -1 13 -11 21 -8 48 18 18 18 38 32 45 32
30 0 3 -42 -86 -134 -40 -42 -70 -81 -67 -86 4 -6 41 25 84 70 43 44 83 80 89
80 11 0 -6 -37 -45 -96 -8 -14 -12 -28 -8 -32 4 -4 12 1 19 12 41 67 68 81 58
29 -2 -16 -1 -25 3 -21 10 10 35 -10 35 -28 0 -7 -40 -40 -89 -74 -104 -69
-114 -80 -72 -80 29 0 100 32 111 51 10 15 149 79 172 79 17 0 19 -3 10 -12
-8 -8 -9 -15 -1 -25 9 -9 8 -13 0 -13 -7 0 -29 -16 -49 -35 -20 -19 -40 -35
-43 -35 -4 0 -21 -13 -40 -29 -32 -28 -33 -30 -16 -49 16 -18 16 -20 -21 -54
-20 -19 -50 -43 -65 -52 -15 -10 -27 -24 -27 -32 0 -8 22 0 63 24 70 41 85 56
93 93 9 41 71 62 114 39 13 -7 21 -7 25 0 7 11 65 14 65 4 0 -4 -8 -13 -17
-20 -17 -12 -16 -13 5 -14 12 0 22 -4 22 -10 0 -5 -5 -10 -10 -10 -6 0 -16
-11 -22 -25 -8 -18 -24 -29 -56 -37 -29 -7 -46 -18 -49 -29 -3 -10 -27 -32
-53 -49 -27 -17 -51 -37 -54 -45 -3 -8 -16 -15 -28 -15 -34 -1 -70 -31 -58
-50 5 -8 10 -10 10 -3 0 14 54 33 96 33 23 0 34 -5 34 -14 0 -19 -27 -46 -46
-46 -8 0 -14 -4 -14 -9 0 -5 23 -11 50 -15 59 -8 100 -22 100 -34 0 -14 -48
-33 -55 -21 -11 17 -25 -1 -19 -25 9 -37 -19 -51 -110 -53 -45 -1 -83 -3 -86
-3 -3 0 4 -7 14 -15 22 -17 87 -19 156 -5 26 5 66 5 95 0 28 -5 86 -12 129
-14 44 -3 84 -10 90 -16 7 -7 3 -10 -12 -10 -12 0 -24 1 -25 3 -2 1 -11 -4
-20 -12 -20 -16 -197 -23 -272 -11 -27 5 -66 12 -85 15 l-35 6 35 -18 c19 -10
55 -25 80 -32 139 -42 160 -52 160 -72 0 -5 -24 -9 -54 -9 -34 0 -56 -5 -58
-12 -7 -21 -84 3 -80 25 3 18 -14 22 -38 7 -12 -7 -12 -12 4 -29 11 -12 26
-21 34 -21 17 0 68 -34 100 -67 26 -27 16 -29 -35 -8 -49 21 -61 19 -34 -6 31
-29 14 -43 -31 -25 -33 14 -251 156 -273 178 -7 7 6 8 38 4 59 -9 63 8 5 26
-32 9 -42 10 -46 0 -2 -7 -8 -12 -14 -12 -6 0 -7 7 -4 16 7 19 -1 54 -13 54
-11 0 -40 -71 -34 -86 3 -8 42 -43 87 -78 94 -75 261 -235 252 -243 -3 -3 -29
9 -57 28 -35 22 -54 29 -57 21 -10 -31 -39 -7 -72 61 -33 68 -70 101 -70 63 0
-22 -6 -20 -46 10 -19 15 -34 24 -34 20 0 -19 132 -202 162 -224 10 -7 18 -22
18 -34 0 -17 -4 -19 -22 -13 -13 4 -31 7 -40 7 -10 -1 -34 19 -55 44 -21 24
-41 44 -46 44 -4 0 15 -45 43 -100 27 -55 50 -102 50 -105 0 -3 -6 -5 -14 -5
-8 0 -27 18 -43 40 -18 26 -36 40 -50 40 -26 0 -30 -21 -8 -40 19 -16 20 -50
1 -50 -26 0 -53 62 -53 126 -1 55 -23 134 -39 134 -4 0 -3 -27 0 -61 6 -48 4
-60 -6 -57 -7 3 -13 18 -14 35 -1 37 -10 53 -31 53 -13 0 -15 -9 -10 -57 3
-32 13 -80 22 -107 14 -41 15 -53 4 -72 -7 -13 -16 -24 -21 -24 -5 0 -23 31
-41 70 -18 38 -35 70 -39 70 -5 0 -8 -13 -8 -29 0 -16 -3 -37 -6 -46 -10 -26
-43 51 -44 101 0 30 -5 44 -17 48 -26 10 -39 -16 -47 -89 -9 -88 -14 -99 -33
-80 -16 17 -33 11 -33 -10 0 -23 -31 -95 -41 -95 -14 0 -11 110 6 229 8 58 18
126 21 151 7 45 7 45 16 15 5 -16 13 -48 18 -70 l8 -40 0 55 c0 30 1 64 3 75
3 15 -1 19 -14 17 -11 -2 -25 5 -32 14 -11 16 -14 11 -29 -38 -9 -31 -16 -61
-16 -67 0 -6 -11 -35 -24 -65 -18 -41 -31 -57 -50 -62 -15 -3 -26 -13 -26 -23
-1 -14 -3 -13 -15 3 -18 24 -45 14 -45 -18 0 -29 -19 -76 -31 -76 -4 0 -3 14
3 31 6 16 8 33 4 36 -9 9 -36 -17 -37 -36 -1 -36 -59 -106 -59 -72 0 12 95
208 110 226 4 6 12 24 18 40 9 26 11 27 11 8 1 -28 21 -31 21 -3 0 10 13 42
30 69 16 28 25 53 20 56 -14 9 -30 -3 -30 -23 0 -21 -17 -4 -22 23 -4 23 -4
23 -98 -91 -98 -119 -108 -129 -116 -121 -5 4 -3 17 4 27 7 11 12 25 12 32 0
7 9 24 20 38 21 27 26 50 11 50 -5 0 -15 -13 -22 -29 -10 -21 -17 -27 -25 -20
-8 7 -18 0 -33 -24 -23 -38 -61 -75 -61 -60 0 5 7 18 15 29 19 25 19 64 0 64
-8 0 -15 4 -15 9 0 12 78 111 139 177 28 30 51 57 51 60 0 12 -84 -41 -161
-103 -95 -77 -137 -98 -174 -89 -14 4 -25 2 -25 -4 0 -5 -7 -10 -15 -10 -8 0
-15 -4 -15 -10 0 -5 -7 -10 -15 -10 -22 0 -19 9 11 32 19 16 22 23 13 29 -10
6 -1 19 33 50 26 22 44 47 42 54 -3 6 2 18 11 25 8 7 15 28 15 46 l0 34 -36
-15 c-41 -17 -70 -19 -79 -6 -10 17 171 111 223 116 26 2 49 4 51 5 2 0 -2 7
-9 15 -7 8 -29 15 -50 15 -25 0 -42 6 -51 19 -11 15 -22 18 -53 14 -25 -4 -34
-8 -25 -14 7 -4 10 -11 6 -15 -3 -4 -13 -1 -22 6 -14 12 -29 11 -67 -5 -14 -5
-18 -2 -18 13 0 27 -15 35 -58 34 -30 -1 -34 1 -29 20 4 12 2 27 -4 34 -7 9
-4 17 12 28 l22 15 -29 11 c-15 6 -56 10 -90 9 -50 -2 -67 2 -89 19 -27 22
-27 22 -5 22 13 0 38 -5 56 -12 35 -12 114 -1 117 17 1 6 -17 15 -40 20 -55
13 -65 25 -20 25 20 0 39 5 42 10 3 6 1 10 -5 10 -6 0 -8 5 -5 10 3 6 46 10
94 10 48 0 90 3 94 6 10 10 -35 70 -71 94 -28 20 -35 21 -43 9 -7 -12 -9 -12
-9 1 0 9 5 21 11 27 8 8 4 16 -15 28 -28 19 -35 45 -11 45 8 0 49 -11 91 -26
90 -30 114 -27 59 8 -76 49 -103 88 -59 88 24 0 16 16 -21 45 -21 15 -35 34
-33 43 1 10 -1 23 -5 30 -11 16 8 15 58 -3 62 -22 74 -17 35 15 -32 28 -33 30
-11 30 32 0 49 -21 57 -69 6 -38 5 -41 -17 -42 -22 0 -22 -1 8 -16 19 -10 38
-31 49 -55 26 -58 32 -55 32 15 -1 44 -6 70 -19 89 -24 34 -24 55 1 63 16 5
40 -11 108 -74 48 -44 89 -76 90 -70 2 5 0 15 -6 22 -5 7 -12 39 -16 72 -4 32
-14 83 -22 113 -9 29 -13 56 -9 60 3 4 22 -11 40 -33 19 -22 34 -35 35 -29 0
6 -18 53 -41 104 -22 50 -38 94 -34 98 3 4 10 0 15 -8 6 -9 24 -15 46 -15 35
0 38 -2 52 -45 29 -90 31 -93 47 -80 13 10 18 6 30 -24 21 -49 37 -135 29
-158 -9 -28 9 -21 23 9 9 18 10 36 4 57 -40 134 -47 178 -41 270 0 11 -5 23
-11 27 -9 5 -14 45 -17 121 -2 62 -8 127 -13 144 -12 40 -3 69 18 53 7 -7 13
-19 12 -28z m-1103 -291 c49 0 63 -14 40 -39 -16 -17 -15 -19 15 -25 24 -5 29
-9 21 -19 -14 -16 -4 -32 25 -41 15 -5 24 -18 29 -41 5 -31 9 -34 34 -29 15 4
31 1 34 -5 10 -16 -55 -70 -86 -71 -15 0 -30 -4 -33 -10 -3 -5 -18 -10 -33
-10 -44 -1 -132 -62 -132 -92 0 -15 3 -16 28 -6 15 7 34 18 43 25 17 14 29 8
29 -14 0 -7 -6 -13 -13 -13 -8 0 -28 -18 -46 -41 -30 -37 -34 -39 -54 -26 -12
7 -49 19 -82 26 -33 7 -79 21 -103 32 -23 10 -48 19 -56 19 -7 0 -26 6 -42 14
-16 8 -40 19 -54 24 -14 6 -56 33 -95 62 -38 29 -88 61 -110 71 -22 10 -53 32
-70 49 -25 26 -27 33 -15 40 15 9 62 15 108 12 12 0 22 3 22 8 0 9 73 40 95
40 24 0 17 -20 -10 -30 -14 -5 -25 -14 -25 -20 0 -13 73 -13 85 -1 6 6 34 12
62 14 43 3 58 10 83 35 16 17 31 28 34 24 6 -11 86 -2 86 9 0 5 9 4 20 -3 17
-11 22 -10 30 1 13 21 73 49 85 39 5 -4 28 -8 51 -8z m3350 -105 c11 -9 42
-14 77 -15 62 0 86 -9 126 -46 14 -13 29 -24 33 -24 3 0 13 -6 20 -13 16 -16
120 -85 207 -138 61 -37 121 -51 121 -28 0 6 -6 9 -14 6 -8 -3 -26 10 -45 33
l-31 39 26 20 c25 20 50 26 84 22 49 -5 130 -6 130 -1 0 11 87 100 98 100 9 0
12 -89 12 -339 l0 -339 -22 -6 c-37 -10 -66 -7 -71 7 -7 18 -93 20 -127 2 -23
-12 -38 -12 -90 -3 l-63 12 -24 -29 c-22 -28 -25 -29 -37 -12 -14 18 -41 23
-50 8 -3 -5 -25 -8 -49 -7 -33 2 -41 6 -39 19 3 19 -23 23 -33 6 -4 -6 -19 -7
-35 -4 -16 3 -31 2 -35 -4 -10 -18 -25 -12 -25 9 0 27 -44 38 -65 16 -19 -19
-55 -21 -56 -3 0 9 -2 9 -6 0 -5 -13 -35 -10 -85 9 -20 8 -28 17 -28 35 0 16
-5 23 -12 20 -22 -8 -58 11 -58 31 0 11 -10 32 -22 47 -18 23 -19 31 -9 47 14
23 16 21 -26 41 -51 27 -65 45 -51 67 10 15 10 22 0 32 -22 22 -14 79 15 110
21 22 23 28 10 28 -9 0 -22 -9 -29 -19 -8 -12 -32 -22 -59 -26 -41 -6 -47 -5
-51 13 -5 16 -11 19 -29 15 -13 -3 -30 -10 -36 -16 -9 -6 -15 -5 -18 5 -4 10
-15 13 -31 10 -17 -3 -24 0 -24 12 0 9 -4 16 -10 16 -5 0 -10 7 -10 15 0 11
11 15 38 15 51 0 198 27 225 41 12 7 55 43 95 81 98 92 147 114 188 83z
m-2991 -905 c3 -5 -12 -21 -34 -35 -40 -27 -51 -48 -51 -97 0 -32 -27 -39 -37
-10 -3 9 -14 25 -25 35 -17 17 -18 16 -18 -23 0 -33 3 -40 20 -40 25 0 25 -8
-1 -39 -18 -22 -21 -23 -37 -7 -10 9 -25 16 -34 16 -8 0 -37 11 -64 25 -27 14
-57 25 -66 25 -9 0 -20 5 -23 10 -10 16 -25 12 -19 -5 4 -8 17 -18 30 -21 13
-3 24 -11 24 -16 0 -5 17 -30 37 -54 l36 -45 -29 7 c-16 4 -37 18 -47 30 -24
31 -83 66 -104 62 -10 -1 -24 1 -30 5 -8 5 -13 3 -13 -7 0 -33 -92 -60 -118
-34 -10 10 -15 10 -22 -2 -7 -11 -4 -16 10 -18 12 -2 20 -11 20 -22 0 -20 -26
-35 -35 -20 -10 16 -38 12 -32 -4 3 -8 -3 -22 -14 -32 -16 -15 -35 -17 -113
-15 -75 2 -96 -1 -110 -14 -9 -9 -16 -20 -16 -25 0 -5 -20 3 -44 16 l-44 25 3
-47 c1 -25 8 -50 15 -54 10 -6 9 -9 -1 -12 -10 -3 -9 -12 4 -38 21 -41 21 -40
-3 -40 -17 0 -19 -4 -14 -25 12 -47 10 -60 -8 -57 -19 3 -33 -14 -18 -23 17
-10 11 -35 -8 -35 -30 0 -31 -8 -11 -63 25 -69 18 -89 -19 -54 -70 67 -49 1
26 -81 12 -14 21 -27 18 -29 -6 -6 -101 21 -108 32 -11 15 -44 -9 -40 -30 3
-15 -2 -17 -27 -12 -28 6 -87 -14 -75 -25 2 -3 -1 -17 -7 -32 -9 -20 -17 -24
-34 -20 -22 5 -49 -16 -29 -23 5 -2 16 -8 24 -13 32 -21 -12 -31 -112 -26
l-98 5 20 -21 c44 -47 6 -64 -63 -29 -20 10 -49 22 -64 25 -25 5 -21 -1 29
-47 60 -56 63 -67 19 -67 -23 0 -24 -1 -6 -13 20 -15 13 -37 -12 -37 -9 0 -32
5 -50 12 l-33 12 0 202 c0 111 3 204 8 206 4 2 24 25 45 51 41 51 142 124 248
179 81 42 136 84 154 117 17 33 78 96 134 141 42 33 48 34 153 41 102 6 111 8
156 39 26 19 72 58 102 88 63 62 109 86 206 106 53 11 81 12 124 4 65 -13 66
-14 51 -32 -8 -10 -9 -16 -1 -21 5 -3 10 -2 10 4 0 12 62 35 160 60 85 22 126
25 135 11z m2485 -314 c30 -14 66 -32 80 -40 71 -41 242 -121 318 -148 48 -17
103 -43 122 -58 19 -15 64 -41 100 -57 43 -19 75 -42 93 -67 16 -20 45 -44 65
-52 26 -10 46 -30 70 -68 17 -30 32 -61 32 -69 0 -9 5 -19 10 -22 6 -3 10 -15
10 -25 0 -10 4 -20 8 -22 11 -4 72 -94 72 -107 0 -5 15 -20 33 -32 17 -13 35
-27 38 -31 3 -5 44 -7 92 -7 l86 2 -6 29 c-4 21 -1 33 13 43 17 13 17 16 4 25
-11 7 -16 5 -18 -5 -7 -29 -30 -15 -34 21 -3 26 0 38 11 42 9 3 19 9 22 14 10
16 37 -3 48 -34 11 -31 37 -34 35 -4 -2 21 2 20 26 -4 19 -19 20 -33 20 -495
l0 -475 -92 0 c-62 1 -101 6 -118 15 -14 8 -36 14 -49 15 -14 0 -39 16 -62 40
-21 21 -62 49 -91 61 -29 13 -66 33 -83 44 -16 12 -38 25 -48 28 -16 6 -17 8
-2 31 15 23 15 27 -2 53 -9 15 -22 31 -27 34 -5 4 -6 12 -2 17 8 14 -25 32
-59 32 -52 0 -144 67 -122 89 8 8 5 11 -11 11 -38 0 -92 32 -92 55 0 15 -10
25 -36 34 -31 11 -35 16 -32 43 3 27 -1 31 -35 43 -46 16 -77 42 -77 65 0 20
-46 54 -60 45 -6 -3 -10 5 -10 19 0 18 -5 26 -17 26 -13 0 -14 3 -5 12 7 7 12
23 12 38 0 18 -3 21 -9 11 -7 -11 -11 -10 -19 5 -14 26 28 58 66 49 34 -7 82
15 141 67 24 21 51 38 60 38 25 1 50 24 48 46 -2 16 4 19 37 17 25 -2 48 4 66
17 16 11 34 20 42 20 16 0 38 20 38 35 0 24 -222 66 -235 44 -4 -5 -16 -9 -28
-10 -21 0 -21 -1 2 -10 15 -6 21 -13 15 -19 -14 -13 -120 -40 -214 -54 -47 -7
-115 -24 -151 -38 -45 -17 -72 -22 -87 -17 -12 5 -22 11 -22 15 0 13 35 33 56
34 12 0 27 6 33 14 9 11 6 15 -14 20 -25 6 -75 -17 -75 -35 0 -5 -13 -9 -30
-9 -29 0 -30 1 -30 51 0 46 -2 50 -20 44 -17 -5 -20 -2 -20 24 0 23 -5 31 -18
31 -10 0 -23 -5 -30 -12 -9 -9 -12 -9 -12 0 0 7 -9 12 -20 12 -18 0 -19 3 -9
22 15 27 -4 43 -62 52 l-40 6 30 26 c23 19 34 23 48 16 13 -8 24 -5 40 8 12
10 20 20 16 23 -3 3 5 22 17 41 26 43 19 62 -15 40 -18 -12 -24 -12 -27 -2 -6
17 42 68 64 68 14 0 15 5 8 29 -7 24 -5 32 12 43 22 15 16 48 -11 48 -11 0 -8
5 9 13 27 15 34 13 120 -27z m-4006 -919 c14 -13 23 -27 19 -30 -12 -13 -22
-7 -37 23 -18 36 -15 37 18 7z m2826 -97 c-8 -5 -24 -10 -35 -10 -17 0 -17 2
-5 10 8 5 24 10 35 10 17 0 17 -2 5 -10z m-3 -227 c-3 -10 -5 -2 -5 17 0 19 2
27 5 18 2 -10 2 -26 0 -35z m328 25 c-19 -11 -30 -5 -21 11 4 6 14 7 22 4 15
-5 14 -7 -1 -15z m-75 -52 c0 -2 -7 -7 -16 -10 -8 -3 -12 -2 -9 4 6 10 25 14
25 6z m-62 -45 c-12 -15 -29 -37 -36 -47 -10 -16 -11 -15 -1 6 11 24 48 70 57
70 2 0 -7 -13 -20 -29z m-67 -99 c-11 -16 -27 -35 -36 -42 -21 -18 -19 -29 5
-23 24 6 26 -9 5 -27 -19 -16 -20 -34 -1 -27 10 4 16 -7 21 -41 6 -41 9 -44
19 -29 7 9 16 14 19 11 10 -11 -21 -47 -43 -51 -21 -3 -26 13 -21 65 1 15 -2
21 -9 17 -6 -3 -7 -12 -3 -18 3 -7 -4 -3 -17 8 l-23 20 5 -21 c3 -12 2 -28 -3
-35 -10 -16 -10 -12 -14 89 -2 69 15 110 35 82 9 -13 15 -10 38 17 34 39 50
43 23 5z m242 -33 c-4 -4 -7 6 -6 24 2 44 5 47 10 13 3 -16 1 -32 -4 -37z
m-25 -46 c-7 -16 -18 -35 -25 -44 -7 -8 -13 -21 -13 -27 0 -15 -37 -35 -44
-24 -3 5 8 19 24 31 17 12 36 37 44 56 8 19 17 35 20 35 3 0 0 -12 -6 -27z
m226 -48 c-9 -14 -20 -25 -24 -25 -4 0 -13 -13 -20 -29 -7 -19 -21 -31 -38
-34 l-27 -5 26 19 c14 10 38 37 54 59 30 43 57 57 29 15z m67 -29 c-9 -40 -26
-43 -44 -7 -14 27 -13 30 2 33 41 9 48 5 42 -26z"/>
<path d="M8334 7508 c-12 -5 -27 -21 -33 -34 -8 -18 -11 -871 -11 -3135 l0
-3110 25 -24 24 -25 3151 0 3151 0 24 25 25 24 0 3121 0 3121 -25 24 -24 25
-3143 -1 c-2143 0 -3150 -4 -3164 -11z m5226 -2478 l0 -2070 -2070 0 -2070 0
0 2070 0 2070 2070 0 2070 0 0 -2070z"/>
<path d="M10100 7030 c8 -5 24 -10 34 -10 26 0 18 6 -19 14 -22 5 -26 4 -15
-4z"/>
<path d="M10047 7013 c-3 -5 8 -8 23 -8 15 0 26 3 23 8 -2 4 -13 7 -23 7 -10
0 -21 -3 -23 -7z"/>
<path d="M10665 7010 c-3 -5 -21 -10 -38 -10 -58 0 -75 -10 -80 -43 -3 -18 -1
-36 3 -41 5 -5 2 -15 -6 -24 -13 -13 -13 -17 2 -33 21 -23 37 -14 31 17 -3 20
0 24 20 24 17 0 23 -4 20 -13 -3 -10 3 -12 23 -9 22 3 28 -1 33 -20 6 -21 8
-22 23 -6 18 17 12 38 -12 38 -15 0 -19 16 -5 24 5 3 15 -1 22 -10 25 -30 77
-44 125 -34 36 8 49 7 67 -5 37 -26 51 -19 31 14 -15 25 -21 28 -40 21 -14 -6
-26 -5 -29 0 -9 15 5 32 20 26 8 -3 19 2 25 10 20 23 43 18 37 -8 -6 -22 7
-48 25 -48 6 0 5 7 -2 15 -15 18 -6 45 15 45 9 0 15 -9 15 -21 0 -19 4 -20 33
-15 17 4 40 7 49 7 12 0 18 10 20 32 3 28 6 32 28 29 14 -2 37 1 50 6 18 7 5
9 -48 7 -40 -2 -79 -9 -87 -15 -8 -6 -19 -9 -24 -5 -6 3 -23 -2 -38 -12 -24
-15 -26 -15 -15 -1 20 25 -7 29 -45 6 -30 -18 -33 -18 -33 -3 0 9 9 19 20 22
24 6 16 23 -11 23 -10 0 -19 4 -19 9 0 14 -55 6 -56 -8 -1 -6 -2 -14 -3 -18 0
-4 -10 3 -21 14 -21 23 -52 21 -83 -5 -9 -8 -20 -12 -25 -7 -4 4 -1 10 6 12 6
3 10 9 6 14 -7 12 -21 11 -29 -1z"/>
<path d="M10008 6993 c7 -3 16 -2 19 1 4 3 -2 6 -13 5 -11 0 -14 -3 -6 -6z"/>
<path d="M11274 6975 c-9 -19 -9 -28 1 -42 18 -25 24 -15 16 29 -6 37 -6 37
-17 13z"/>
<path d="M11206 6973 c-6 -14 -5 -15 5 -6 7 7 10 15 7 18 -3 3 -9 -2 -12 -12z"/>
<path d="M10241 6960 c-1 -9 -14 -30 -30 -47 -21 -24 -25 -33 -15 -37 8 -3 14
-1 14 4 0 6 6 10 13 10 18 0 51 41 40 49 -6 3 -13 13 -16 21 -5 13 -6 13 -6 0z"/>
<path d="M9600 6920 c0 -5 5 -10 10 -10 6 0 10 5 10 10 0 6 -4 10 -10 10 -5 0
-10 -4 -10 -10z"/>
<path d="M9482 6890 c-1 -25 3 -30 23 -30 12 0 26 7 29 16 9 23 8 24 -10 17
-10 -4 -22 0 -29 10 -10 14 -12 13 -13 -13z"/>
<path d="M11575 6901 c-3 -5 4 -16 16 -25 17 -12 25 -12 41 -3 17 11 18 12 1
15 -10 2 -22 8 -27 13 -13 12 -23 11 -31 0z"/>
<path d="M10955 6859 c-10 -15 3 -25 16 -12 7 7 7 13 1 17 -6 3 -14 1 -17 -5z"/>
<path d="M11097 6550 c-14 -38 -64 -61 -81 -38 -10 13 -30 16 -101 15 l-90 -2
-23 -37 c-18 -30 -21 -42 -12 -57 7 -13 7 -22 0 -26 -6 -3 -13 1 -16 9 -10 25
-37 20 -31 -5 5 -18 2 -20 -16 -15 -12 3 -25 6 -29 6 -5 0 -8 9 -8 20 0 15 -7
20 -27 20 -16 0 -44 4 -63 10 -52 14 -144 18 -191 10 -45 -8 -79 4 -79 27 0
15 -26 17 -35 4 -3 -5 -1 -12 5 -16 5 -3 10 -10 10 -15 0 -9 -40 -1 -57 12 -7
5 -14 5 -17 -1 -4 -6 -13 -8 -20 -5 -7 3 -20 -2 -29 -10 -12 -12 -29 -14 -80
-9 -76 7 -102 -8 -91 -51 5 -19 0 -31 -21 -51 -16 -14 -32 -25 -36 -25 -5 0
-9 -7 -9 -15 0 -18 31 -35 65 -35 14 0 35 -4 45 -10 10 -5 49 -13 87 -16 37
-3 71 -8 76 -11 14 -8 7 25 -8 37 -13 11 -20 11 -40 0 -30 -16 -48 -4 -22 14
24 18 22 23 -18 36 -35 12 -48 30 -20 30 8 0 15 7 15 15 0 8 -4 15 -10 15 -5
0 -10 5 -10 11 0 6 7 8 17 5 11 -5 23 0 33 13 20 27 90 40 90 17 0 -9 -7 -16
-15 -16 -8 0 -15 -3 -15 -8 0 -11 50 -29 101 -36 25 -4 55 -15 67 -26 14 -14
22 -16 25 -7 3 8 20 4 58 -14 30 -15 79 -30 109 -33 68 -9 158 -33 188 -52 31
-20 28 -45 -11 -88 -29 -31 -37 -35 -63 -28 -16 5 -37 6 -47 4 -18 -4 -18 -4
0 -17 12 -9 20 -10 24 -3 4 6 14 8 23 5 13 -5 12 -10 -10 -32 -14 -14 -27 -25
-29 -25 -3 0 -14 -9 -26 -21 -13 -13 -24 -18 -31 -11 -13 13 -58 3 -58 -14 0
-7 5 -16 11 -19 6 -5 4 -12 -8 -20 -10 -8 -22 -10 -28 -5 -6 5 -17 5 -25 0
-22 -14 -30 -12 -30 6 0 9 -10 18 -21 21 -20 6 -20 7 -5 18 14 11 15 14 1 25
-19 16 -19 44 1 64 17 18 74 22 74 6 0 -5 6 -10 14 -10 8 0 18 -9 21 -20 3
-11 12 -20 20 -20 11 0 10 7 -2 40 -13 32 -19 38 -30 29 -10 -9 -13 -6 -13 13
0 27 -34 65 -44 50 -3 -5 1 -15 9 -22 19 -16 19 -40 0 -40 -8 0 -15 4 -15 9 0
5 -19 12 -42 15 -24 4 -65 10 -93 14 -27 4 -67 3 -87 -1 -30 -7 -43 -6 -63 7
-25 16 -45 14 -45 -4 0 -5 9 -12 20 -15 30 -10 12 -28 -21 -21 -15 3 -31 1
-34 -4 -10 -17 23 -23 65 -12 25 6 40 6 40 0 0 -5 4 -7 9 -4 14 9 20 -32 6
-44 -10 -8 -19 -8 -35 2 -18 11 -22 11 -31 -4 -12 -22 -49 -24 -49 -3 0 8 -8
18 -17 24 -26 13 -135 18 -139 6 -5 -13 43 -35 75 -35 32 0 131 -50 131 -66 0
-7 8 -10 20 -7 11 3 20 9 20 14 0 5 7 6 15 3 9 -4 15 0 15 10 0 19 31 21 48 4
20 -20 14 -28 -20 -28 -28 -1 -30 -2 -15 -11 10 -6 25 -8 34 -5 8 3 27 -2 41
-13 15 -10 39 -21 54 -25 15 -3 33 -13 42 -21 9 -9 17 -11 21 -5 8 13 35 13
35 0 0 -5 -7 -10 -15 -10 -21 0 -20 -2 25 -66 22 -32 40 -63 40 -70 0 -19 79
-114 94 -114 7 0 19 -7 26 -15 18 -22 39 -19 33 4 -6 24 12 34 95 51 l62 13
35 -39 c19 -21 34 -45 35 -51 0 -7 11 -20 25 -29 22 -14 30 -15 50 -4 16 9 41
10 77 6 29 -4 71 -8 93 -10 22 -2 75 -15 118 -30 42 -14 82 -26 88 -26 6 0 17
-7 25 -15 9 -8 25 -16 37 -16 16 -1 14 -3 -8 -8 -24 -5 -30 -11 -30 -33 0 -50
-19 -51 -55 -3 -19 25 -41 45 -49 45 -9 0 -26 3 -37 6 -19 5 -21 2 -19 -28 2
-18 3 -35 4 -38 5 -23 95 -48 191 -53 29 -2 36 2 38 21 4 25 14 27 45 10 12
-7 37 -13 54 -14 56 -5 91 -33 109 -87 9 -27 25 -58 35 -68 11 -11 19 -26 19
-34 0 -8 5 -15 10 -15 6 0 10 12 10 26 0 37 15 21 30 -31 7 -24 19 -50 26 -56
19 -15 18 -30 -1 -23 -17 7 -19 1 -6 -24 31 -61 44 -101 42 -129 -2 -21 5 -39
17 -51 21 -21 40 -121 28 -141 -4 -5 2 -18 12 -28 20 -19 36 -99 21 -108 -4
-3 1 -20 11 -38 21 -33 26 -67 12 -67 -5 0 -17 16 -28 35 -16 31 -20 33 -34
20 -22 -20 -50 -19 -50 1 0 9 -8 22 -17 29 -10 7 -18 29 -20 50 -1 20 -7 43
-13 50 -19 23 -110 11 -110 -15 0 -4 12 -22 26 -39 14 -17 24 -38 21 -45 -7
-18 24 -31 33 -15 6 8 9 8 14 0 4 -6 0 -21 -8 -33 -9 -12 -16 -29 -16 -36 0
-8 -9 -25 -20 -39 -17 -21 -21 -23 -26 -9 -8 22 -21 20 -29 -4 -7 -23 -25 -27
-25 -5 0 7 -6 18 -14 22 -7 4 -15 19 -18 33 -3 14 -9 32 -12 41 -5 13 0 20 21
27 l28 10 -36 1 c-25 1 -39 -4 -43 -15 -3 -8 -10 -12 -16 -9 -6 3 -10 -5 -10
-19 0 -15 7 -27 18 -31 22 -6 47 -54 35 -66 -16 -16 -68 6 -75 32 -4 13 -12
44 -19 69 -7 25 -21 57 -32 73 -18 27 -18 27 5 36 17 6 29 3 47 -10 13 -11 28
-19 32 -19 12 0 11 37 -1 45 -6 4 -7 11 -4 17 7 11 -15 58 -27 58 -4 0 -9 -10
-11 -22 -2 -16 -9 -22 -20 -20 -10 2 -18 -2 -18 -8 0 -6 -5 -8 -10 -5 -6 4 -8
10 -5 15 8 13 -6 40 -21 40 -21 0 -35 -43 -18 -53 20 -12 17 -50 -6 -70 -29
-24 -25 -42 18 -88 52 -57 55 -65 37 -93 -14 -21 -14 -24 0 -29 8 -4 22 -4 30
-1 23 9 45 -3 39 -21 -4 -10 -13 -13 -25 -10 -16 5 -19 1 -19 -25 0 -35 -32
-55 -63 -38 -11 6 -23 6 -30 0 -8 -6 -18 -3 -29 9 -15 16 -15 17 4 22 12 4 17
10 13 17 -4 7 -16 9 -28 6 -32 -8 -76 4 -70 20 7 19 -19 27 -58 16 -41 -10
-47 -38 -8 -34 19 2 29 -4 36 -21 7 -14 23 -27 40 -30 15 -3 41 -18 56 -32 22
-21 26 -30 16 -41 -15 -18 -39 -18 -67 1 -16 12 -26 13 -41 5 -17 -8 -22 -6
-32 11 -8 16 -14 18 -22 10 -8 -8 -8 -20 2 -44 24 -60 30 -97 16 -97 -14 0
-25 22 -25 50 0 19 -19 30 -52 30 -11 0 -29 11 -39 24 -11 14 -32 27 -48 31
-23 5 -28 10 -24 26 3 11 14 24 24 30 11 5 19 17 19 25 0 13 -8 15 -42 10 -41
-6 -44 -4 -70 33 -16 22 -28 44 -28 51 0 6 -5 21 -12 33 -7 12 -13 29 -14 37
-2 8 -8 16 -13 18 -21 7 -11 32 13 32 13 0 40 7 60 15 33 14 39 14 62 -1 14
-10 37 -18 52 -19 15 -1 55 -6 90 -10 42 -5 62 -4 62 4 0 17 -48 44 -66 37
-19 -7 -145 12 -157 23 -5 5 -26 6 -48 4 -23 -4 -45 -1 -53 7 -9 6 -20 9 -26
5 -16 -10 -12 21 5 35 21 18 19 40 -5 40 -11 0 -20 5 -20 10 0 6 -10 10 -22
10 -15 0 -27 10 -35 26 l-12 26 51 -6 c28 -4 60 -12 70 -17 15 -8 18 -6 18 15
0 19 4 23 20 19 10 -3 24 -11 31 -19 7 -9 24 -12 53 -8 39 6 44 3 74 -30 37
-42 45 -45 37 -13 -5 20 -1 24 37 34 30 8 46 8 56 1 7 -6 15 -8 18 -5 7 7 -20
37 -34 37 -15 0 -52 45 -52 63 0 10 11 22 25 27 29 11 31 22 10 40 -11 9 -18
10 -29 1 -7 -6 -21 -9 -30 -5 -25 9 -30 -21 -12 -67 20 -49 15 -59 -30 -59
-26 0 -43 8 -69 35 -48 47 -45 61 15 76 28 7 50 18 50 23 0 6 -14 19 -31 29
l-32 18 22 22 c28 31 27 35 -11 39 -25 2 -34 8 -36 25 -3 20 -27 49 -66 81
-21 17 -24 15 -18 -13 5 -31 -10 -32 -45 -5 -20 16 -34 18 -67 13 -40 -6 -66
-22 -66 -41 0 -19 77 -60 125 -66 70 -10 99 -23 116 -54 14 -24 15 -62 3 -62
-2 0 -20 9 -39 19 -20 10 -45 17 -56 14 -19 -5 -19 -7 -2 -32 48 -73 57 -112
21 -87 -12 9 -30 16 -39 16 -20 0 -33 27 -16 33 16 6 8 13 -26 21 -19 4 -26 3
-25 -6 2 -6 -5 -14 -15 -16 -15 -3 -18 0 -12 17 5 15 2 21 -10 21 -11 0 -14
-6 -9 -24 3 -13 1 -27 -5 -30 -14 -9 -14 -66 -1 -66 12 0 1 -52 -13 -61 -5 -4
-19 -5 -31 -2 -19 4 -18 2 7 -19 28 -25 33 -47 18 -77 -6 -10 -6 -23 0 -32 8
-12 11 -12 19 3 12 20 50 12 50 -11 0 -28 -16 -43 -41 -39 -23 3 -24 1 -27
-76 -2 -61 1 -82 13 -96 14 -16 14 -18 0 -23 -22 -9 -18 -36 8 -47 16 -6 17
-9 5 -9 -26 -1 -32 -20 -13 -41 12 -13 14 -26 9 -42 -4 -13 -6 -50 -5 -84 1
-44 -2 -64 -14 -74 -8 -7 -15 -23 -15 -36 0 -26 -10 -30 -27 -13 -7 7 -12 3
-17 -15 -3 -14 -11 -26 -16 -26 -13 0 -13 -47 0 -55 6 -3 10 -24 10 -46 0 -43
-18 -52 -48 -23 -14 15 -17 15 -28 -1 -15 -20 -28 -90 -20 -103 3 -5 17 -7 31
-4 18 3 24 9 20 21 -6 21 46 45 80 37 18 -5 25 -2 25 9 0 14 31 21 42 9 8 -7
-28 -44 -43 -44 -6 0 -9 -7 -5 -15 4 -11 -1 -15 -19 -15 -28 0 -43 -19 -25
-30 9 -6 9 -9 -1 -16 -7 -4 -14 -3 -17 4 -6 18 -26 14 -56 -9 -21 -17 -25 -24
-14 -30 7 -5 22 -2 35 6 25 17 59 20 67 6 3 -5 -3 -11 -14 -14 -26 -7 -26 -44
0 -52 19 -6 26 -25 14 -37 -3 -4 -21 0 -39 8 -50 21 -68 19 -55 -5 5 -11 10
-29 10 -40 0 -18 -6 -21 -40 -21 -35 0 -40 3 -40 23 0 16 9 28 25 35 28 13 30
23 13 55 -6 12 -12 35 -12 51 -1 17 -8 31 -16 34 -8 3 -30 20 -48 38 -32 32
-35 33 -57 18 -17 -11 -26 -30 -32 -67 -5 -29 -6 -54 -2 -57 14 -10 -3 -58
-21 -63 -26 -7 -30 1 -20 29 8 21 7 24 -15 24 -18 0 -25 5 -25 20 0 11 5 20
11 20 12 0 10 18 -13 110 l-14 55 -7 -40 c-4 -28 -2 -44 8 -55 13 -14 11 -21
-11 -54 -22 -32 -25 -43 -17 -69 5 -18 18 -37 30 -42 20 -11 21 -12 5 -40 -10
-17 -24 -35 -32 -42 -19 -15 -7 -27 28 -28 17 0 28 -6 30 -17 3 -14 -3 -18
-27 -18 -17 0 -31 -4 -31 -10 0 -5 -9 -10 -20 -10 -11 0 -20 5 -20 10 0 6 -8
10 -17 10 -13 0 -6 -11 24 -38 51 -46 60 -75 28 -92 -27 -14 -44 -7 -43 18 3
31 -12 72 -26 72 -16 0 -39 -25 -60 -67 -12 -24 -21 -30 -36 -26 -11 3 -20 1
-20 -3 0 -5 -9 -15 -21 -22 -15 -10 -24 -10 -34 -2 -12 10 -11 17 6 46 16 29
17 36 4 40 -21 8 -34 -3 -28 -26 3 -13 -1 -22 -11 -26 -23 -9 -31 2 -16 21 18
22 6 29 -22 13 -39 -22 -38 -30 8 -66 48 -36 53 -58 11 -55 -17 1 -27 -4 -30
-18 -6 -24 -37 -25 -44 -1 -8 26 -64 68 -101 75 -31 6 -32 5 -26 -21 10 -47
13 -52 29 -52 9 0 23 -7 31 -15 14 -13 14 -16 0 -21 -8 -3 -21 -2 -28 2 -20
13 -70 15 -84 3 -7 -6 -22 -8 -33 -4 -15 4 -19 2 -16 -7 6 -16 -50 -49 -70
-42 -8 4 -15 1 -15 -5 0 -6 -7 -11 -16 -11 -11 0 -14 6 -9 21 7 20 5 21 -31
14 -22 -3 -40 -11 -42 -16 -2 -5 -8 -9 -13 -9 -6 0 -7 15 -3 36 5 29 4 36 -7
32 -18 -6 -25 -158 -8 -169 17 -10 436 -10 461 1 13 5 17 9 10 9 -23 1 -2 21
22 21 15 0 26 -7 29 -20 5 -19 11 -20 109 -14 139 7 155 9 172 23 11 9 15 8
20 -4 4 -13 9 -13 25 -3 14 8 23 9 33 1 9 -8 139 -11 410 -11 355 -1 399 1
407 16 8 14 10 14 25 -1 14 -13 47 -16 226 -17 200 0 210 1 220 20 6 11 9 32
8 48 -2 19 2 27 12 27 10 0 16 -13 18 -41 3 -39 6 -42 35 -47 18 -3 60 -6 95
-6 50 -1 62 1 62 14 0 9 5 13 10 10 6 -4 8 -11 5 -16 -4 -5 12 -9 35 -9 23 0
39 4 36 9 -3 5 1 14 10 22 13 10 16 9 21 -9 5 -21 11 -22 103 -22 85 0 99 2
103 18 4 16 5 16 6 0 1 -16 12 -18 86 -18 48 0 85 4 85 10 0 5 9 14 20 20 17
9 28 7 53 -9 31 -18 51 -19 552 -18 l520 2 -2 385 c-2 212 -3 400 -3 418 0 29
-3 32 -29 32 -35 0 -66 26 -52 44 5 6 12 26 16 44 4 20 20 43 41 60 32 25 34
30 33 89 -1 35 -4 65 -8 66 -3 2 -37 1 -75 -2 -54 -5 -73 -3 -88 9 -41 33 16
75 68 51 33 -15 33 -14 27 10 -3 11 -17 25 -30 30 -19 7 -24 15 -21 36 2 22 9
29 33 33 41 7 48 41 8 40 -15 0 -44 2 -63 6 -31 5 -37 2 -52 -23 -9 -15 -15
-32 -15 -38 1 -5 -9 -12 -23 -14 -29 -4 -40 -17 -40 -48 0 -18 -6 -23 -24 -23
-22 0 -24 3 -19 41 5 34 3 41 -15 45 -20 6 -35 46 -25 71 7 18 38 16 68 -3 22
-14 25 -14 44 5 12 12 34 21 51 21 20 0 28 4 24 13 -2 7 7 26 21 43 15 17 24
39 22 53 -2 28 20 38 86 40 41 1 48 14 16 31 -24 14 -69 0 -109 -34 -52 -44
-68 -48 -105 -30 -40 18 -68 12 -63 -13 3 -18 -31 -43 -58 -43 -8 0 -23 -9
-35 -21 -16 -16 -23 -18 -35 -8 -11 9 -12 14 -3 19 6 4 7 10 2 13 -12 8 -96
-12 -104 -24 -3 -5 -22 -12 -42 -16 -36 -5 -37 -5 -37 26 0 35 -18 41 -45 15
-8 -9 -22 -14 -29 -11 -9 4 -16 -4 -21 -20 -5 -20 -11 -24 -31 -20 -25 4 -61
-19 -49 -31 3 -4 9 -1 13 5 9 14 84 12 89 -2 7 -21 -54 -36 -116 -29 -43 5
-65 3 -76 -6 -18 -15 -47 3 -39 24 3 9 -4 11 -24 8 -18 -2 -35 2 -45 13 -26
25 -21 35 18 35 19 0 35 5 35 10 0 11 -42 13 -77 4 -15 -4 -22 -13 -20 -28 1
-14 -3 -20 -13 -17 -8 3 -34 6 -57 9 -50 5 -56 20 -12 29 26 5 28 8 17 20 -19
18 -116 53 -150 53 -15 0 -30 -4 -33 -10 -3 -5 -17 -10 -30 -10 -13 0 -27 5
-30 10 -3 6 -19 10 -35 10 -15 0 -35 3 -44 6 -19 7 -21 34 -3 34 156 6 227 15
227 31 0 5 -15 15 -32 23 -18 7 -44 25 -57 40 l-24 26 29 -1 c56 -2 137 -24
148 -41 8 -13 6 -22 -8 -37 -11 -12 -25 -21 -33 -21 -18 0 -17 -15 3 -30 13
-11 16 -10 20 6 3 11 19 26 35 33 22 10 29 19 26 32 -4 15 0 19 19 19 17 0 24
-6 24 -19 0 -10 6 -23 13 -28 16 -12 68 -9 92 5 19 11 19 13 3 26 -10 7 -18
18 -18 23 0 6 -14 10 -31 11 -17 0 -40 9 -51 19 -19 17 -20 17 -33 0 -15 -21
-31 -22 -39 -2 -3 8 -12 12 -20 9 -14 -6 -22 87 -31 371 -2 61 -7 125 -11 142
-5 24 -2 34 9 39 8 3 13 13 10 23 -2 9 3 23 11 30 23 19 20 30 -10 41 -21 8
-25 15 -20 33 3 12 6 28 6 36 0 10 7 8 24 -8 28 -26 63 -25 58 2 -3 16 0 16
17 5 18 -11 23 -10 35 7 12 17 17 18 42 5 16 -7 52 -14 81 -16 73 -3 154 -25
167 -46 6 -10 18 -18 27 -18 36 0 40 -23 44 -269 2 -132 6 -244 9 -250 3 -5
26 -15 51 -22 37 -11 44 -17 39 -32 -4 -14 -2 -18 7 -15 8 3 13 12 11 22 -5
26 27 19 38 -9 8 -22 13 -24 30 -15 22 12 18 30 -5 30 -15 0 -45 27 -45 41 0
5 9 9 19 9 11 0 23 5 26 10 14 22 87 8 78 -16 -4 -10 3 -14 21 -14 14 0 26 -4
26 -9 0 -14 25 -20 41 -10 11 7 10 11 -8 24 -24 17 -30 49 -13 60 8 5 8 11 0
20 -8 10 -8 19 2 34 11 18 8 25 -19 58 -16 21 -38 38 -48 38 -10 0 -24 10 -33
23 -14 21 -13 22 11 22 32 0 38 17 24 63 -9 29 -17 37 -35 37 -13 0 -33 10
-44 23 -14 15 -18 17 -14 5 3 -10 -4 -22 -19 -32 -32 -21 -48 -20 -68 2 -23
25 -21 42 2 42 11 0 23 5 26 10 4 6 -8 10 -28 10 -32 0 -55 19 -40 34 10 10
51 7 58 -4 3 -5 12 -10 19 -10 19 0 4 85 -21 118 -11 15 -32 28 -46 30 -15 2
-27 8 -27 13 0 5 -7 9 -15 9 -9 0 -27 11 -41 25 -14 14 -30 25 -37 25 -7 0 -4
5 6 11 9 6 26 7 37 4 20 -6 28 9 11 20 -16 9 -25 96 -13 115 9 15 5 19 -30 24
-47 8 -56 3 -38 -19 10 -12 9 -16 -3 -21 -25 -9 -40 5 -26 23 10 12 10 16 -2
24 -8 5 -20 9 -26 9 -7 0 -13 4 -13 9 0 14 -72 0 -88 -16 -16 -16 -32 -8 -32
16 0 10 -3 21 -7 24 -3 4 -7 33 -9 64 -2 61 4 73 44 73 12 0 22 3 22 8 -1 12
-100 56 -123 55 -12 -1 -27 3 -34 8 -18 16 -37 1 -22 -17 9 -11 8 -14 -5 -14
-9 0 -20 8 -23 18 -8 20 -23 32 -42 32 -10 0 -11 -3 -2 -14 9 -11 7 -15 -13
-20 -39 -10 -57 -47 -44 -90 14 -44 0 -67 -25 -42 -9 9 -20 16 -25 16 -5 0
-20 9 -34 19 -13 11 -37 21 -52 23 -25 3 -30 9 -41 53 -7 28 -15 82 -16 120
-4 66 -3 70 18 73 17 3 22 -2 25 -25 2 -19 8 -27 18 -24 28 6 165 0 205 -9 27
-6 42 -5 46 2 16 26 -14 48 -68 48 -12 0 -24 6 -27 13 -3 9 -8 8 -18 -5 -10
-12 -18 -14 -31 -6 -12 6 -22 6 -31 -1 -10 -8 -17 -7 -26 4 -7 9 -21 13 -31
10 -12 -4 -21 -1 -25 9 -3 9 -14 16 -24 16 -10 0 -31 15 -45 33 -15 17 -24 26
-20 20 4 -9 -1 -13 -14 -13 -12 0 -21 6 -21 13 0 8 -3 9 -8 1 -4 -6 -26 -14
-48 -17 -32 -5 -47 -3 -65 12 -28 21 -103 33 -117 19 -12 -12 -32 -2 -32 15 0
19 39 39 62 31 15 -4 19 -2 15 7 -2 8 -10 13 -17 11 -7 -1 -18 3 -26 9 -11 9
-18 8 -29 -1 -18 -15 -62 -6 -88 18 -20 18 -94 26 -103 11 -3 -5 8 -9 25 -9
29 0 55 -20 34 -27 -6 -2 -9 -13 -6 -23 5 -17 2 -18 -33 -8 -22 6 -65 8 -97 5
-48 -4 -56 -3 -47 8 14 16 -1 49 -26 59 -23 9 -24 8 -24 -14 0 -11 -4 -20 -10
-20 -5 0 -10 7 -10 15 0 8 -8 15 -18 15 -10 0 -32 12 -49 28 -25 22 -33 39
-41 87 -7 40 -6 67 1 82 11 24 31 30 42 13 8 -12 42 -13 49 -1 3 4 -16 22 -42
39 -26 17 -60 41 -75 54 -23 19 -31 20 -47 10 -11 -7 -33 -12 -50 -12 -23 0
-30 4 -30 20 0 30 -20 24 -33 -10z m773 -2030 c0 -11 6 -21 13 -22 6 0 17 -2
22 -3 6 -2 17 -3 26 -4 9 0 19 -7 22 -15 5 -12 -5 -14 -51 -13 -45 2 -57 -1
-60 -14 -2 -9 4 -24 13 -32 15 -16 20 -37 9 -37 -10 0 -64 64 -64 76 0 7 6 14
14 17 7 3 16 19 19 36 7 35 37 43 37 11z"/>
<path d="M10026 6479 c2 -4 -2 -10 -8 -12 -7 -3 2 -4 20 -3 44 4 50 13 13 18
-16 2 -28 1 -25 -3z"/>
<path d="M10610 6245 c10 -12 9 -15 -6 -16 -11 0 -14 -3 -6 -6 15 -6 44 16 36
28 -3 5 -12 9 -21 9 -13 0 -13 -3 -3 -15z"/>
<path d="M10498 6223 c18 -2 45 -2 60 0 15 2 0 4 -33 4 -33 0 -45 -2 -27 -4z"/>
<path d="M11894 6185 c-18 -13 -16 -14 23 -15 31 0 45 -5 52 -19 12 -21 48
-34 57 -20 3 6 12 5 22 -3 12 -10 14 -10 8 0 -5 8 1 12 19 12 37 0 64 -17 75
-46 8 -21 16 -24 59 -24 57 0 81 7 81 24 0 17 -53 41 -58 27 -5 -14 -46 -4
-92 22 -21 12 -50 19 -73 18 -25 -1 -39 3 -43 13 -4 10 -18 15 -37 14 -18 0
-41 2 -53 6 -12 3 -28 0 -40 -9z"/>
<path d="M9651 5811 c-10 -7 -11 -13 -2 -30 15 -28 21 -161 9 -185 -9 -17 -18
-18 -78 -12 -67 6 -103 -5 -60 -19 11 -4 28 -17 36 -31 l16 -24 26 21 c25 19
26 19 44 2 21 -22 38 -126 31 -198 -2 -27 -6 -99 -7 -160 -2 -60 -7 -129 -11
-151 -4 -24 -3 -49 3 -60 9 -17 23 -294 26 -524 l1 -85 70 -6 c39 -4 105 -5
148 -3 67 2 82 6 109 29 17 14 36 24 43 21 6 -2 19 9 29 24 16 28 16 29 -13
49 -16 12 -33 21 -39 21 -5 0 -15 7 -22 15 -10 12 -10 18 0 30 7 9 18 14 24
12 6 -2 18 10 26 27 13 27 14 36 2 71 -7 22 -18 60 -24 85 -9 41 -10 69 -8
184 1 25 -5 42 -16 51 -17 12 -17 15 0 59 16 41 20 45 42 40 19 -5 24 -2 24
13 0 10 -7 28 -15 41 -13 17 -13 26 -4 43 6 12 8 39 5 63 -3 22 -8 84 -12 136
-4 77 -9 99 -26 117 -19 21 -20 24 -6 40 24 28 29 78 13 124 -8 23 -15 50 -15
61 0 25 -23 48 -49 48 -14 0 -21 6 -21 18 0 16 -11 18 -82 21 -45 1 -87 5 -93
9 -5 4 -26 7 -45 8 -19 0 -42 4 -50 7 -8 4 -21 3 -29 -2z"/>
<path d="M700 750 l0 -50 52 0 52 0 -49 50 c-27 28 -51 50 -52 50 -2 0 -3 -22
-3 -50z"/>
<path d="M15245 750 l-49 -50 52 0 52 0 0 50 c0 28 -1 50 -3 50 -1 0 -25 -22
-52 -50z"/>
</g>
</svg>
